ISO-10303-21;
HEADER;
/* Generated by software containing ST-Developer
 * from STEP Tools, Inc. (www.steptools.com) 
 */
/* OPTION: using custom renumber hook */

FILE_DESCRIPTION(
/* description */ ('STEP AP242 Edition 2',
'CAx-IF Rec.Pracs.---Representation and Presentation of Product Manufa
cturing Information (PMI)---4.0---2014-10-13',
'CAx-IF Rec.Pracs.---3D Tessellated Geometry---0.4---2014-09-14','2;1',
'CAx-IF Rec.Pracs.---User Defined Attributes---1.5---2016-08-15'),
/* implementation_level */ '2;1');

FILE_NAME(
/* name */ 'Part Studio 1 - body',
/* time_stamp */ '2026-09-07T14:49:11Z',
/* author */ (''),
/* organization */ (''),
/* preprocessor_version */ 'ST-DEVELOPER v20',
/* originating_system */ 'ONSHAPE BY PTC INC, 1.220',
/* authorisation */ '  ');

FILE_SCHEMA (('AP242_MANAGED_MODEL_BASED_3D_ENGINEERING_MIM_LF { 1 0 10303 442 3 1 4 }'));
ENDSEC;

DATA;
#10=SHAPE_REPRESENTATION_RELATIONSHIP('','',#1003,#11);
#11=ADVANCED_BREP_SHAPE_REPRESENTATION('',(#1001),#1629);
#12=CYLINDRICAL_SURFACE('',#1020,0.005);
#13=CYLINDRICAL_SURFACE('',#1023,0.005);
#14=CYLINDRICAL_SURFACE('',#1026,0.005);
#15=CYLINDRICAL_SURFACE('',#1029,0.005);
#16=CYLINDRICAL_SURFACE('',#1038,0.0075);
#17=CYLINDRICAL_SURFACE('',#1039,0.0075);
#18=CYLINDRICAL_SURFACE('',#1053,0.0015);
#19=CYLINDRICAL_SURFACE('',#1056,0.0015);
#20=CYLINDRICAL_SURFACE('',#1059,0.0015);
#21=CYLINDRICAL_SURFACE('',#1062,0.0015);
#22=CYLINDRICAL_SURFACE('',#1072,0.0025);
#23=CYLINDRICAL_SURFACE('',#1073,0.0025);
#24=CIRCLE('',#1008,0.0075);
#25=CIRCLE('',#1009,0.0075);
#26=CIRCLE('',#1021,0.005);
#27=CIRCLE('',#1022,0.005);
#28=CIRCLE('',#1024,0.005);
#29=CIRCLE('',#1025,0.005);
#30=CIRCLE('',#1027,0.005);
#31=CIRCLE('',#1028,0.005);
#32=CIRCLE('',#1030,0.005);
#33=CIRCLE('',#1031,0.005);
#34=CIRCLE('',#1033,0.0025);
#35=CIRCLE('',#1034,0.0025);
#36=CIRCLE('',#1036,0.0075);
#37=CIRCLE('',#1037,0.0075);
#38=CIRCLE('',#1041,0.0015);
#39=CIRCLE('',#1042,0.0015);
#40=CIRCLE('',#1043,0.0015);
#41=CIRCLE('',#1044,0.0015);
#42=CIRCLE('',#1054,0.0015);
#43=CIRCLE('',#1057,0.0015);
#44=CIRCLE('',#1060,0.0015);
#45=CIRCLE('',#1063,0.0015);
#46=CIRCLE('',#1066,0.0025);
#47=CIRCLE('',#1067,0.0025);
#48=ORIENTED_EDGE('',*,*,#312,.T.);
#49=ORIENTED_EDGE('',*,*,#313,.T.);
#50=ORIENTED_EDGE('',*,*,#314,.F.);
#51=ORIENTED_EDGE('',*,*,#315,.F.);
#52=ORIENTED_EDGE('',*,*,#316,.F.);
#53=ORIENTED_EDGE('',*,*,#317,.F.);
#54=ORIENTED_EDGE('',*,*,#318,.T.);
#55=ORIENTED_EDGE('',*,*,#319,.T.);
#56=ORIENTED_EDGE('',*,*,#320,.F.);
#57=ORIENTED_EDGE('',*,*,#321,.F.);
#58=ORIENTED_EDGE('',*,*,#322,.T.);
#59=ORIENTED_EDGE('',*,*,#323,.T.);
#60=ORIENTED_EDGE('',*,*,#324,.F.);
#61=ORIENTED_EDGE('',*,*,#325,.F.);
#62=ORIENTED_EDGE('',*,*,#326,.T.);
#63=ORIENTED_EDGE('',*,*,#327,.T.);
#64=ORIENTED_EDGE('',*,*,#328,.F.);
#65=ORIENTED_EDGE('',*,*,#329,.F.);
#66=ORIENTED_EDGE('',*,*,#330,.T.);
#67=ORIENTED_EDGE('',*,*,#331,.T.);
#68=ORIENTED_EDGE('',*,*,#332,.F.);
#69=ORIENTED_EDGE('',*,*,#333,.T.);
#70=ORIENTED_EDGE('',*,*,#334,.T.);
#71=ORIENTED_EDGE('',*,*,#335,.F.);
#72=ORIENTED_EDGE('',*,*,#336,.T.);
#73=ORIENTED_EDGE('',*,*,#337,.T.);
#74=ORIENTED_EDGE('',*,*,#338,.F.);
#75=ORIENTED_EDGE('',*,*,#339,.T.);
#76=ORIENTED_EDGE('',*,*,#340,.T.);
#77=ORIENTED_EDGE('',*,*,#341,.T.);
#78=ORIENTED_EDGE('',*,*,#342,.F.);
#79=ORIENTED_EDGE('',*,*,#343,.T.);
#80=ORIENTED_EDGE('',*,*,#344,.T.);
#81=ORIENTED_EDGE('',*,*,#345,.F.);
#82=ORIENTED_EDGE('',*,*,#346,.F.);
#83=ORIENTED_EDGE('',*,*,#347,.F.);
#84=ORIENTED_EDGE('',*,*,#348,.T.);
#85=ORIENTED_EDGE('',*,*,#321,.T.);
#86=ORIENTED_EDGE('',*,*,#349,.T.);
#87=ORIENTED_EDGE('',*,*,#350,.T.);
#88=ORIENTED_EDGE('',*,*,#351,.F.);
#89=ORIENTED_EDGE('',*,*,#352,.T.);
#90=ORIENTED_EDGE('',*,*,#353,.T.);
#91=ORIENTED_EDGE('',*,*,#354,.T.);
#92=ORIENTED_EDGE('',*,*,#355,.F.);
#93=ORIENTED_EDGE('',*,*,#356,.T.);
#94=ORIENTED_EDGE('',*,*,#357,.T.);
#95=ORIENTED_EDGE('',*,*,#358,.T.);
#96=ORIENTED_EDGE('',*,*,#359,.F.);
#97=ORIENTED_EDGE('',*,*,#360,.T.);
#98=ORIENTED_EDGE('',*,*,#361,.T.);
#99=ORIENTED_EDGE('',*,*,#362,.T.);
#100=ORIENTED_EDGE('',*,*,#363,.F.);
#101=ORIENTED_EDGE('',*,*,#364,.T.);
#102=ORIENTED_EDGE('',*,*,#365,.T.);
#103=ORIENTED_EDGE('',*,*,#366,.T.);
#104=ORIENTED_EDGE('',*,*,#367,.F.);
#105=ORIENTED_EDGE('',*,*,#368,.T.);
#106=ORIENTED_EDGE('',*,*,#369,.T.);
#107=ORIENTED_EDGE('',*,*,#370,.T.);
#108=ORIENTED_EDGE('',*,*,#371,.F.);
#109=ORIENTED_EDGE('',*,*,#372,.T.);
#110=ORIENTED_EDGE('',*,*,#340,.F.);
#111=ORIENTED_EDGE('',*,*,#373,.T.);
#112=ORIENTED_EDGE('',*,*,#374,.T.);
#113=ORIENTED_EDGE('',*,*,#375,.T.);
#114=ORIENTED_EDGE('',*,*,#338,.T.);
#115=ORIENTED_EDGE('',*,*,#376,.T.);
#116=ORIENTED_EDGE('',*,*,#377,.F.);
#117=ORIENTED_EDGE('',*,*,#378,.T.);
#118=ORIENTED_EDGE('',*,*,#379,.T.);
#119=ORIENTED_EDGE('',*,*,#380,.T.);
#120=ORIENTED_EDGE('',*,*,#336,.F.);
#121=ORIENTED_EDGE('',*,*,#381,.F.);
#122=ORIENTED_EDGE('',*,*,#382,.F.);
#123=ORIENTED_EDGE('',*,*,#365,.F.);
#124=ORIENTED_EDGE('',*,*,#383,.T.);
#125=ORIENTED_EDGE('',*,*,#371,.T.);
#126=ORIENTED_EDGE('',*,*,#384,.F.);
#127=ORIENTED_EDGE('',*,*,#361,.F.);
#128=ORIENTED_EDGE('',*,*,#385,.T.);
#129=ORIENTED_EDGE('',*,*,#367,.T.);
#130=ORIENTED_EDGE('',*,*,#386,.F.);
#131=ORIENTED_EDGE('',*,*,#357,.F.);
#132=ORIENTED_EDGE('',*,*,#387,.T.);
#133=ORIENTED_EDGE('',*,*,#363,.T.);
#134=ORIENTED_EDGE('',*,*,#388,.F.);
#135=ORIENTED_EDGE('',*,*,#369,.F.);
#136=ORIENTED_EDGE('',*,*,#389,.T.);
#137=ORIENTED_EDGE('',*,*,#359,.T.);
#138=ORIENTED_EDGE('',*,*,#390,.F.);
#139=ORIENTED_EDGE('',*,*,#391,.F.);
#140=ORIENTED_EDGE('',*,*,#341,.F.);
#141=ORIENTED_EDGE('',*,*,#375,.F.);
#142=ORIENTED_EDGE('',*,*,#392,.T.);
#143=ORIENTED_EDGE('',*,*,#381,.T.);
#144=ORIENTED_EDGE('',*,*,#372,.F.);
#145=ORIENTED_EDGE('',*,*,#383,.F.);
#146=ORIENTED_EDGE('',*,*,#368,.F.);
#147=ORIENTED_EDGE('',*,*,#385,.F.);
#148=ORIENTED_EDGE('',*,*,#364,.F.);
#149=ORIENTED_EDGE('',*,*,#387,.F.);
#150=ORIENTED_EDGE('',*,*,#360,.F.);
#151=ORIENTED_EDGE('',*,*,#389,.F.);
#152=ORIENTED_EDGE('',*,*,#377,.T.);
#153=ORIENTED_EDGE('',*,*,#393,.T.);
#154=ORIENTED_EDGE('',*,*,#379,.F.);
#155=ORIENTED_EDGE('',*,*,#392,.F.);
#156=ORIENTED_EDGE('',*,*,#374,.F.);
#157=ORIENTED_EDGE('',*,*,#394,.T.);
#158=ORIENTED_EDGE('',*,*,#393,.F.);
#159=ORIENTED_EDGE('',*,*,#376,.F.);
#160=ORIENTED_EDGE('',*,*,#337,.F.);
#161=ORIENTED_EDGE('',*,*,#380,.F.);
#162=ORIENTED_EDGE('',*,*,#394,.F.);
#163=ORIENTED_EDGE('',*,*,#373,.F.);
#164=ORIENTED_EDGE('',*,*,#339,.F.);
#165=ORIENTED_EDGE('',*,*,#378,.F.);
#166=ORIENTED_EDGE('',*,*,#395,.F.);
#167=ORIENTED_EDGE('',*,*,#396,.F.);
#168=ORIENTED_EDGE('',*,*,#397,.F.);
#169=ORIENTED_EDGE('',*,*,#398,.F.);
#170=ORIENTED_EDGE('',*,*,#399,.T.);
#171=ORIENTED_EDGE('',*,*,#400,.T.);
#172=ORIENTED_EDGE('',*,*,#401,.F.);
#173=ORIENTED_EDGE('',*,*,#356,.F.);
#174=ORIENTED_EDGE('',*,*,#402,.T.);
#175=ORIENTED_EDGE('',*,*,#403,.T.);
#176=ORIENTED_EDGE('',*,*,#404,.F.);
#177=ORIENTED_EDGE('',*,*,#352,.F.);
#178=ORIENTED_EDGE('',*,*,#405,.T.);
#179=ORIENTED_EDGE('',*,*,#406,.T.);
#180=ORIENTED_EDGE('',*,*,#407,.F.);
#181=ORIENTED_EDGE('',*,*,#315,.T.);
#182=ORIENTED_EDGE('',*,*,#408,.T.);
#183=ORIENTED_EDGE('',*,*,#409,.T.);
#184=ORIENTED_EDGE('',*,*,#410,.F.);
#185=ORIENTED_EDGE('',*,*,#347,.T.);
#186=ORIENTED_EDGE('',*,*,#388,.T.);
#187=ORIENTED_EDGE('',*,*,#358,.F.);
#188=ORIENTED_EDGE('',*,*,#386,.T.);
#189=ORIENTED_EDGE('',*,*,#362,.F.);
#190=ORIENTED_EDGE('',*,*,#384,.T.);
#191=ORIENTED_EDGE('',*,*,#366,.F.);
#192=ORIENTED_EDGE('',*,*,#382,.T.);
#193=ORIENTED_EDGE('',*,*,#370,.F.);
#194=ORIENTED_EDGE('',*,*,#324,.T.);
#195=ORIENTED_EDGE('',*,*,#411,.T.);
#196=ORIENTED_EDGE('',*,*,#408,.F.);
#197=ORIENTED_EDGE('',*,*,#314,.T.);
#198=ORIENTED_EDGE('',*,*,#412,.T.);
#199=ORIENTED_EDGE('',*,*,#413,.T.);
#200=ORIENTED_EDGE('',*,*,#410,.T.);
#201=ORIENTED_EDGE('',*,*,#414,.T.);
#202=ORIENTED_EDGE('',*,*,#322,.F.);
#203=ORIENTED_EDGE('',*,*,#348,.F.);
#204=ORIENTED_EDGE('',*,*,#407,.T.);
#205=ORIENTED_EDGE('',*,*,#415,.T.);
#206=ORIENTED_EDGE('',*,*,#326,.F.);
#207=ORIENTED_EDGE('',*,*,#416,.F.);
#208=ORIENTED_EDGE('',*,*,#417,.T.);
#209=ORIENTED_EDGE('',*,*,#312,.F.);
#210=ORIENTED_EDGE('',*,*,#328,.T.);
#211=ORIENTED_EDGE('',*,*,#418,.T.);
#212=ORIENTED_EDGE('',*,*,#405,.F.);
#213=ORIENTED_EDGE('',*,*,#351,.T.);
#214=ORIENTED_EDGE('',*,*,#419,.T.);
#215=ORIENTED_EDGE('',*,*,#420,.T.);
#216=ORIENTED_EDGE('',*,*,#316,.T.);
#217=ORIENTED_EDGE('',*,*,#421,.T.);
#218=ORIENTED_EDGE('',*,*,#402,.F.);
#219=ORIENTED_EDGE('',*,*,#355,.T.);
#220=ORIENTED_EDGE('',*,*,#422,.T.);
#221=ORIENTED_EDGE('',*,*,#423,.T.);
#222=ORIENTED_EDGE('',*,*,#404,.T.);
#223=ORIENTED_EDGE('',*,*,#424,.T.);
#224=ORIENTED_EDGE('',*,*,#330,.F.);
#225=ORIENTED_EDGE('',*,*,#425,.F.);
#226=ORIENTED_EDGE('',*,*,#426,.T.);
#227=ORIENTED_EDGE('',*,*,#349,.F.);
#228=ORIENTED_EDGE('',*,*,#401,.T.);
#229=ORIENTED_EDGE('',*,*,#427,.T.);
#230=ORIENTED_EDGE('',*,*,#318,.F.);
#231=ORIENTED_EDGE('',*,*,#428,.F.);
#232=ORIENTED_EDGE('',*,*,#429,.T.);
#233=ORIENTED_EDGE('',*,*,#353,.F.);
#234=ORIENTED_EDGE('',*,*,#320,.T.);
#235=ORIENTED_EDGE('',*,*,#430,.T.);
#236=ORIENTED_EDGE('',*,*,#399,.F.);
#237=ORIENTED_EDGE('',*,*,#346,.T.);
#238=ORIENTED_EDGE('',*,*,#431,.F.);
#239=ORIENTED_EDGE('',*,*,#398,.T.);
#240=ORIENTED_EDGE('',*,*,#431,.T.);
#241=ORIENTED_EDGE('',*,*,#432,.F.);
#242=ORIENTED_EDGE('',*,*,#397,.T.);
#243=ORIENTED_EDGE('',*,*,#432,.T.);
#244=ORIENTED_EDGE('',*,*,#433,.F.);
#245=ORIENTED_EDGE('',*,*,#396,.T.);
#246=ORIENTED_EDGE('',*,*,#433,.T.);
#247=ORIENTED_EDGE('',*,*,#434,.F.);
#248=ORIENTED_EDGE('',*,*,#395,.T.);
#249=ORIENTED_EDGE('',*,*,#434,.T.);
#250=ORIENTED_EDGE('',*,*,#435,.F.);
#251=ORIENTED_EDGE('',*,*,#436,.F.);
#252=ORIENTED_EDGE('',*,*,#420,.F.);
#253=ORIENTED_EDGE('',*,*,#437,.T.);
#254=ORIENTED_EDGE('',*,*,#425,.T.);
#255=ORIENTED_EDGE('',*,*,#329,.T.);
#256=ORIENTED_EDGE('',*,*,#342,.T.);
#257=ORIENTED_EDGE('',*,*,#438,.T.);
#258=ORIENTED_EDGE('',*,*,#333,.F.);
#259=ORIENTED_EDGE('',*,*,#439,.F.);
#260=ORIENTED_EDGE('',*,*,#439,.T.);
#261=ORIENTED_EDGE('',*,*,#332,.T.);
#262=ORIENTED_EDGE('',*,*,#440,.F.);
#263=ORIENTED_EDGE('',*,*,#343,.F.);
#264=ORIENTED_EDGE('',*,*,#440,.T.);
#265=ORIENTED_EDGE('',*,*,#335,.T.);
#266=ORIENTED_EDGE('',*,*,#441,.F.);
#267=ORIENTED_EDGE('',*,*,#344,.F.);
#268=ORIENTED_EDGE('',*,*,#345,.T.);
#269=ORIENTED_EDGE('',*,*,#441,.T.);
#270=ORIENTED_EDGE('',*,*,#334,.F.);
#271=ORIENTED_EDGE('',*,*,#438,.F.);
#272=ORIENTED_EDGE('',*,*,#436,.T.);
#273=ORIENTED_EDGE('',*,*,#391,.T.);
#274=ORIENTED_EDGE('',*,*,#435,.T.);
#275=ORIENTED_EDGE('',*,*,#390,.T.);
#276=ORIENTED_EDGE('',*,*,#413,.F.);
#277=ORIENTED_EDGE('',*,*,#442,.T.);
#278=ORIENTED_EDGE('',*,*,#416,.T.);
#279=ORIENTED_EDGE('',*,*,#325,.T.);
#280=ORIENTED_EDGE('',*,*,#423,.F.);
#281=ORIENTED_EDGE('',*,*,#443,.T.);
#282=ORIENTED_EDGE('',*,*,#428,.T.);
#283=ORIENTED_EDGE('',*,*,#317,.T.);
#284=ORIENTED_EDGE('',*,*,#422,.F.);
#285=ORIENTED_EDGE('',*,*,#354,.F.);
#286=ORIENTED_EDGE('',*,*,#429,.F.);
#287=ORIENTED_EDGE('',*,*,#443,.F.);
#288=ORIENTED_EDGE('',*,*,#412,.F.);
#289=ORIENTED_EDGE('',*,*,#313,.F.);
#290=ORIENTED_EDGE('',*,*,#417,.F.);
#291=ORIENTED_EDGE('',*,*,#442,.F.);
#292=ORIENTED_EDGE('',*,*,#419,.F.);
#293=ORIENTED_EDGE('',*,*,#350,.F.);
#294=ORIENTED_EDGE('',*,*,#426,.F.);
#295=ORIENTED_EDGE('',*,*,#437,.F.);
#296=ORIENTED_EDGE('',*,*,#400,.F.);
#297=ORIENTED_EDGE('',*,*,#430,.F.);
#298=ORIENTED_EDGE('',*,*,#319,.F.);
#299=ORIENTED_EDGE('',*,*,#427,.F.);
#300=ORIENTED_EDGE('',*,*,#403,.F.);
#301=ORIENTED_EDGE('',*,*,#421,.F.);
#302=ORIENTED_EDGE('',*,*,#331,.F.);
#303=ORIENTED_EDGE('',*,*,#424,.F.);
#304=ORIENTED_EDGE('',*,*,#406,.F.);
#305=ORIENTED_EDGE('',*,*,#418,.F.);
#306=ORIENTED_EDGE('',*,*,#327,.F.);
#307=ORIENTED_EDGE('',*,*,#415,.F.);
#308=ORIENTED_EDGE('',*,*,#409,.F.);
#309=ORIENTED_EDGE('',*,*,#411,.F.);
#310=ORIENTED_EDGE('',*,*,#323,.F.);
#311=ORIENTED_EDGE('',*,*,#414,.F.);
#312=EDGE_CURVE('',#444,#445,#536,.T.);
#313=EDGE_CURVE('',#445,#446,#537,.T.);
#314=EDGE_CURVE('',#447,#446,#538,.T.);
#315=EDGE_CURVE('',#444,#447,#539,.T.);
#316=EDGE_CURVE('',#448,#449,#540,.T.);
#317=EDGE_CURVE('',#450,#448,#541,.T.);
#318=EDGE_CURVE('',#450,#451,#542,.T.);
#319=EDGE_CURVE('',#451,#452,#543,.T.);
#320=EDGE_CURVE('',#453,#452,#544,.T.);
#321=EDGE_CURVE('',#454,#453,#545,.T.);
#322=EDGE_CURVE('',#454,#455,#546,.T.);
#323=EDGE_CURVE('',#455,#456,#547,.T.);
#324=EDGE_CURVE('',#457,#456,#548,.T.);
#325=EDGE_CURVE('',#458,#457,#549,.T.);
#326=EDGE_CURVE('',#458,#459,#550,.T.);
#327=EDGE_CURVE('',#459,#460,#551,.T.);
#328=EDGE_CURVE('',#461,#460,#552,.T.);
#329=EDGE_CURVE('',#462,#461,#553,.T.);
#330=EDGE_CURVE('',#462,#463,#554,.T.);
#331=EDGE_CURVE('',#463,#449,#555,.T.);
#332=EDGE_CURVE('',#464,#465,#556,.T.);
#333=EDGE_CURVE('',#464,#466,#557,.T.);
#334=EDGE_CURVE('',#466,#467,#558,.T.);
#335=EDGE_CURVE('',#465,#467,#559,.T.);
#336=EDGE_CURVE('',#468,#469,#560,.T.);
#337=EDGE_CURVE('',#469,#470,#24,.F.);
#338=EDGE_CURVE('',#471,#470,#561,.T.);
#339=EDGE_CURVE('',#471,#472,#25,.F.);
#340=EDGE_CURVE('',#472,#473,#562,.T.);
#341=EDGE_CURVE('',#473,#468,#563,.T.);
#342=EDGE_CURVE('',#474,#475,#564,.T.);
#343=EDGE_CURVE('',#474,#476,#565,.T.);
#344=EDGE_CURVE('',#476,#477,#566,.T.);
#345=EDGE_CURVE('',#475,#477,#567,.T.);
#346=EDGE_CURVE('',#478,#453,#568,.T.);
#347=EDGE_CURVE('',#479,#478,#569,.T.);
#348=EDGE_CURVE('',#479,#454,#570,.T.);
#349=EDGE_CURVE('',#480,#481,#571,.T.);
#350=EDGE_CURVE('',#481,#482,#572,.T.);
#351=EDGE_CURVE('',#483,#482,#573,.T.);
#352=EDGE_CURVE('',#483,#480,#574,.T.);
#353=EDGE_CURVE('',#484,#485,#575,.T.);
#354=EDGE_CURVE('',#485,#486,#576,.T.);
#355=EDGE_CURVE('',#487,#486,#577,.T.);
#356=EDGE_CURVE('',#487,#484,#578,.T.);
#357=EDGE_CURVE('',#488,#489,#579,.T.);
#358=EDGE_CURVE('',#489,#490,#580,.T.);
#359=EDGE_CURVE('',#491,#490,#581,.T.);
#360=EDGE_CURVE('',#491,#488,#582,.T.);
#361=EDGE_CURVE('',#492,#493,#583,.T.);
#362=EDGE_CURVE('',#493,#494,#584,.T.);
#363=EDGE_CURVE('',#495,#494,#585,.T.);
#364=EDGE_CURVE('',#495,#492,#586,.T.);
#365=EDGE_CURVE('',#496,#497,#587,.T.);
#366=EDGE_CURVE('',#497,#498,#588,.T.);
#367=EDGE_CURVE('',#499,#498,#589,.T.);
#368=EDGE_CURVE('',#499,#496,#590,.T.);
#369=EDGE_CURVE('',#500,#501,#591,.T.);
#370=EDGE_CURVE('',#501,#502,#592,.T.);
#371=EDGE_CURVE('',#503,#502,#593,.T.);
#372=EDGE_CURVE('',#503,#500,#594,.T.);
#373=EDGE_CURVE('',#472,#504,#595,.F.);
#374=EDGE_CURVE('',#504,#505,#596,.T.);
#375=EDGE_CURVE('',#505,#473,#597,.T.);
#376=EDGE_CURVE('',#470,#506,#598,.F.);
#377=EDGE_CURVE('',#507,#506,#599,.T.);
#378=EDGE_CURVE('',#507,#471,#600,.T.);
#379=EDGE_CURVE('',#508,#509,#601,.T.);
#380=EDGE_CURVE('',#509,#469,#602,.T.);
#381=EDGE_CURVE('',#508,#468,#603,.T.);
#382=EDGE_CURVE('',#497,#502,#26,.T.);
#383=EDGE_CURVE('',#496,#503,#27,.T.);
#384=EDGE_CURVE('',#493,#498,#28,.T.);
#385=EDGE_CURVE('',#492,#499,#29,.T.);
#386=EDGE_CURVE('',#489,#494,#30,.T.);
#387=EDGE_CURVE('',#488,#495,#31,.T.);
#388=EDGE_CURVE('',#501,#490,#32,.T.);
#389=EDGE_CURVE('',#500,#491,#33,.T.);
#390=EDGE_CURVE('',#510,#510,#34,.T.);
#391=EDGE_CURVE('',#511,#511,#35,.T.);
#392=EDGE_CURVE('',#505,#508,#604,.T.);
#393=EDGE_CURVE('',#506,#509,#36,.T.);
#394=EDGE_CURVE('',#504,#507,#37,.T.);
#395=EDGE_CURVE('',#512,#512,#38,.T.);
#396=EDGE_CURVE('',#513,#513,#39,.T.);
#397=EDGE_CURVE('',#514,#514,#40,.T.);
#398=EDGE_CURVE('',#515,#515,#41,.T.);
#399=EDGE_CURVE('',#478,#516,#605,.T.);
#400=EDGE_CURVE('',#516,#517,#606,.T.);
#401=EDGE_CURVE('',#484,#517,#607,.T.);
#402=EDGE_CURVE('',#487,#518,#608,.T.);
#403=EDGE_CURVE('',#518,#519,#609,.T.);
#404=EDGE_CURVE('',#480,#519,#610,.T.);
#405=EDGE_CURVE('',#483,#520,#611,.T.);
#406=EDGE_CURVE('',#520,#521,#612,.T.);
#407=EDGE_CURVE('',#444,#521,#613,.T.);
#408=EDGE_CURVE('',#447,#522,#614,.T.);
#409=EDGE_CURVE('',#522,#523,#615,.T.);
#410=EDGE_CURVE('',#479,#523,#616,.T.);
#411=EDGE_CURVE('',#456,#522,#617,.T.);
#412=EDGE_CURVE('',#446,#524,#618,.F.);
#413=EDGE_CURVE('',#524,#457,#619,.T.);
#414=EDGE_CURVE('',#523,#455,#620,.T.);
#415=EDGE_CURVE('',#521,#459,#621,.T.);
#416=EDGE_CURVE('',#525,#458,#622,.T.);
#417=EDGE_CURVE('',#525,#445,#623,.F.);
#418=EDGE_CURVE('',#460,#520,#624,.T.);
#419=EDGE_CURVE('',#482,#526,#625,.T.);
#420=EDGE_CURVE('',#526,#461,#626,.T.);
#421=EDGE_CURVE('',#449,#518,#627,.T.);
#422=EDGE_CURVE('',#486,#527,#628,.T.);
#423=EDGE_CURVE('',#527,#448,#629,.T.);
#424=EDGE_CURVE('',#519,#463,#630,.T.);
#425=EDGE_CURVE('',#528,#462,#631,.T.);
#426=EDGE_CURVE('',#528,#481,#632,.T.);
#427=EDGE_CURVE('',#517,#451,#633,.T.);
#428=EDGE_CURVE('',#529,#450,#634,.T.);
#429=EDGE_CURVE('',#529,#485,#635,.T.);
#430=EDGE_CURVE('',#452,#516,#636,.T.);
#431=EDGE_CURVE('',#530,#530,#42,.T.);
#432=EDGE_CURVE('',#531,#531,#43,.T.);
#433=EDGE_CURVE('',#532,#532,#44,.T.);
#434=EDGE_CURVE('',#533,#533,#45,.T.);
#435=EDGE_CURVE('',#534,#534,#46,.T.);
#436=EDGE_CURVE('',#535,#535,#47,.T.);
#437=EDGE_CURVE('',#526,#528,#637,.T.);
#438=EDGE_CURVE('',#475,#466,#638,.T.);
#439=EDGE_CURVE('',#474,#464,#639,.T.);
#440=EDGE_CURVE('',#476,#465,#640,.T.);
#441=EDGE_CURVE('',#477,#467,#641,.T.);
#442=EDGE_CURVE('',#524,#525,#642,.T.);
#443=EDGE_CURVE('',#527,#529,#643,.T.);
#444=VERTEX_POINT('',#1352);
#445=VERTEX_POINT('',#1353);
#446=VERTEX_POINT('',#1355);
#447=VERTEX_POINT('',#1357);
#448=VERTEX_POINT('',#1361);
#449=VERTEX_POINT('',#1362);
#450=VERTEX_POINT('',#1364);
#451=VERTEX_POINT('',#1366);
#452=VERTEX_POINT('',#1368);
#453=VERTEX_POINT('',#1370);
#454=VERTEX_POINT('',#1372);
#455=VERTEX_POINT('',#1374);
#456=VERTEX_POINT('',#1376);
#457=VERTEX_POINT('',#1378);
#458=VERTEX_POINT('',#1380);
#459=VERTEX_POINT('',#1382);
#460=VERTEX_POINT('',#1384);
#461=VERTEX_POINT('',#1386);
#462=VERTEX_POINT('',#1388);
#463=VERTEX_POINT('',#1390);
#464=VERTEX_POINT('',#1393);
#465=VERTEX_POINT('',#1394);
#466=VERTEX_POINT('',#1396);
#467=VERTEX_POINT('',#1398);
#468=VERTEX_POINT('',#1402);
#469=VERTEX_POINT('',#1403);
#470=VERTEX_POINT('',#1405);
#471=VERTEX_POINT('',#1407);
#472=VERTEX_POINT('',#1409);
#473=VERTEX_POINT('',#1411);
#474=VERTEX_POINT('',#1414);
#475=VERTEX_POINT('',#1415);
#476=VERTEX_POINT('',#1417);
#477=VERTEX_POINT('',#1419);
#478=VERTEX_POINT('',#1423);
#479=VERTEX_POINT('',#1425);
#480=VERTEX_POINT('',#1429);
#481=VERTEX_POINT('',#1430);
#482=VERTEX_POINT('',#1432);
#483=VERTEX_POINT('',#1434);
#484=VERTEX_POINT('',#1438);
#485=VERTEX_POINT('',#1439);
#486=VERTEX_POINT('',#1441);
#487=VERTEX_POINT('',#1443);
#488=VERTEX_POINT('',#1447);
#489=VERTEX_POINT('',#1448);
#490=VERTEX_POINT('',#1450);
#491=VERTEX_POINT('',#1452);
#492=VERTEX_POINT('',#1456);
#493=VERTEX_POINT('',#1457);
#494=VERTEX_POINT('',#1459);
#495=VERTEX_POINT('',#1461);
#496=VERTEX_POINT('',#1465);
#497=VERTEX_POINT('',#1466);
#498=VERTEX_POINT('',#1468);
#499=VERTEX_POINT('',#1470);
#500=VERTEX_POINT('',#1474);
#501=VERTEX_POINT('',#1475);
#502=VERTEX_POINT('',#1477);
#503=VERTEX_POINT('',#1479);
#504=VERTEX_POINT('',#1483);
#505=VERTEX_POINT('',#1485);
#506=VERTEX_POINT('',#1489);
#507=VERTEX_POINT('',#1491);
#508=VERTEX_POINT('',#1495);
#509=VERTEX_POINT('',#1496);
#510=VERTEX_POINT('',#1513);
#511=VERTEX_POINT('',#1515);
#512=VERTEX_POINT('',#1524);
#513=VERTEX_POINT('',#1526);
#514=VERTEX_POINT('',#1528);
#515=VERTEX_POINT('',#1530);
#516=VERTEX_POINT('',#1532);
#517=VERTEX_POINT('',#1534);
#518=VERTEX_POINT('',#1537);
#519=VERTEX_POINT('',#1539);
#520=VERTEX_POINT('',#1542);
#521=VERTEX_POINT('',#1544);
#522=VERTEX_POINT('',#1547);
#523=VERTEX_POINT('',#1549);
#524=VERTEX_POINT('',#1554);
#525=VERTEX_POINT('',#1561);
#526=VERTEX_POINT('',#1566);
#527=VERTEX_POINT('',#1571);
#528=VERTEX_POINT('',#1576);
#529=VERTEX_POINT('',#1581);
#530=VERTEX_POINT('',#1587);
#531=VERTEX_POINT('',#1591);
#532=VERTEX_POINT('',#1595);
#533=VERTEX_POINT('',#1599);
#534=VERTEX_POINT('',#1603);
#535=VERTEX_POINT('',#1605);
#536=LINE('',#1351,#644);
#537=LINE('',#1354,#645);
#538=LINE('',#1356,#646);
#539=LINE('',#1358,#647);
#540=LINE('',#1360,#648);
#541=LINE('',#1363,#649);
#542=LINE('',#1365,#650);
#543=LINE('',#1367,#651);
#544=LINE('',#1369,#652);
#545=LINE('',#1371,#653);
#546=LINE('',#1373,#654);
#547=LINE('',#1375,#655);
#548=LINE('',#1377,#656);
#549=LINE('',#1379,#657);
#550=LINE('',#1381,#658);
#551=LINE('',#1383,#659);
#552=LINE('',#1385,#660);
#553=LINE('',#1387,#661);
#554=LINE('',#1389,#662);
#555=LINE('',#1391,#663);
#556=LINE('',#1392,#664);
#557=LINE('',#1395,#665);
#558=LINE('',#1397,#666);
#559=LINE('',#1399,#667);
#560=LINE('',#1401,#668);
#561=LINE('',#1406,#669);
#562=LINE('',#1410,#670);
#563=LINE('',#1412,#671);
#564=LINE('',#1413,#672);
#565=LINE('',#1416,#673);
#566=LINE('',#1418,#674);
#567=LINE('',#1420,#675);
#568=LINE('',#1422,#676);
#569=LINE('',#1424,#677);
#570=LINE('',#1426,#678);
#571=LINE('',#1428,#679);
#572=LINE('',#1431,#680);
#573=LINE('',#1433,#681);
#574=LINE('',#1435,#682);
#575=LINE('',#1437,#683);
#576=LINE('',#1440,#684);
#577=LINE('',#1442,#685);
#578=LINE('',#1444,#686);
#579=LINE('',#1446,#687);
#580=LINE('',#1449,#688);
#581=LINE('',#1451,#689);
#582=LINE('',#1453,#690);
#583=LINE('',#1455,#691);
#584=LINE('',#1458,#692);
#585=LINE('',#1460,#693);
#586=LINE('',#1462,#694);
#587=LINE('',#1464,#695);
#588=LINE('',#1467,#696);
#589=LINE('',#1469,#697);
#590=LINE('',#1471,#698);
#591=LINE('',#1473,#699);
#592=LINE('',#1476,#700);
#593=LINE('',#1478,#701);
#594=LINE('',#1480,#702);
#595=LINE('',#1482,#703);
#596=LINE('',#1484,#704);
#597=LINE('',#1486,#705);
#598=LINE('',#1488,#706);
#599=LINE('',#1490,#707);
#600=LINE('',#1492,#708);
#601=LINE('',#1494,#709);
#602=LINE('',#1497,#710);
#603=LINE('',#1498,#711);
#604=LINE('',#1516,#712);
#605=LINE('',#1531,#713);
#606=LINE('',#1533,#714);
#607=LINE('',#1535,#715);
#608=LINE('',#1536,#716);
#609=LINE('',#1538,#717);
#610=LINE('',#1540,#718);
#611=LINE('',#1541,#719);
#612=LINE('',#1543,#720);
#613=LINE('',#1545,#721);
#614=LINE('',#1546,#722);
#615=LINE('',#1548,#723);
#616=LINE('',#1550,#724);
#617=LINE('',#1552,#725);
#618=LINE('',#1553,#726);
#619=LINE('',#1555,#727);
#620=LINE('',#1557,#728);
#621=LINE('',#1559,#729);
#622=LINE('',#1560,#730);
#623=LINE('',#1562,#731);
#624=LINE('',#1564,#732);
#625=LINE('',#1565,#733);
#626=LINE('',#1567,#734);
#627=LINE('',#1569,#735);
#628=LINE('',#1570,#736);
#629=LINE('',#1572,#737);
#630=LINE('',#1574,#738);
#631=LINE('',#1575,#739);
#632=LINE('',#1577,#740);
#633=LINE('',#1579,#741);
#634=LINE('',#1580,#742);
#635=LINE('',#1582,#743);
#636=LINE('',#1584,#744);
#637=LINE('',#1606,#745);
#638=LINE('',#1608,#746);
#639=LINE('',#1609,#747);
#640=LINE('',#1611,#748);
#641=LINE('',#1613,#749);
#642=LINE('',#1618,#750);
#643=LINE('',#1620,#751);
#644=VECTOR('',#1087,1.);
#645=VECTOR('',#1088,1.);
#646=VECTOR('',#1089,1.);
#647=VECTOR('',#1090,1.);
#648=VECTOR('',#1093,1.);
#649=VECTOR('',#1094,1.);
#650=VECTOR('',#1095,1.);
#651=VECTOR('',#1096,1.);
#652=VECTOR('',#1097,1.);
#653=VECTOR('',#1098,1.);
#654=VECTOR('',#1099,1.);
#655=VECTOR('',#1100,1.);
#656=VECTOR('',#1101,1.);
#657=VECTOR('',#1102,1.);
#658=VECTOR('',#1103,1.);
#659=VECTOR('',#1104,1.);
#660=VECTOR('',#1105,1.);
#661=VECTOR('',#1106,1.);
#662=VECTOR('',#1107,1.);
#663=VECTOR('',#1108,1.);
#664=VECTOR('',#1109,1.);
#665=VECTOR('',#1110,1.);
#666=VECTOR('',#1111,1.);
#667=VECTOR('',#1112,1.);
#668=VECTOR('',#1115,1.);
#669=VECTOR('',#1118,1.);
#670=VECTOR('',#1121,1.);
#671=VECTOR('',#1122,1.);
#672=VECTOR('',#1123,1.);
#673=VECTOR('',#1124,1.);
#674=VECTOR('',#1125,1.);
#675=VECTOR('',#1126,1.);
#676=VECTOR('',#1129,1.);
#677=VECTOR('',#1130,1.);
#678=VECTOR('',#1131,1.);
#679=VECTOR('',#1134,1.);
#680=VECTOR('',#1135,1.);
#681=VECTOR('',#1136,1.);
#682=VECTOR('',#1137,1.);
#683=VECTOR('',#1140,1.);
#684=VECTOR('',#1141,1.);
#685=VECTOR('',#1142,1.);
#686=VECTOR('',#1143,1.);
#687=VECTOR('',#1146,1.);
#688=VECTOR('',#1147,1.);
#689=VECTOR('',#1148,1.);
#690=VECTOR('',#1149,1.);
#691=VECTOR('',#1152,1.);
#692=VECTOR('',#1153,1.);
#693=VECTOR('',#1154,1.);
#694=VECTOR('',#1155,1.);
#695=VECTOR('',#1158,1.);
#696=VECTOR('',#1159,1.);
#697=VECTOR('',#1160,1.);
#698=VECTOR('',#1161,1.);
#699=VECTOR('',#1164,1.);
#700=VECTOR('',#1165,1.);
#701=VECTOR('',#1166,1.);
#702=VECTOR('',#1167,1.);
#703=VECTOR('',#1170,1.);
#704=VECTOR('',#1171,1.);
#705=VECTOR('',#1172,1.);
#706=VECTOR('',#1175,1.);
#707=VECTOR('',#1176,1.);
#708=VECTOR('',#1177,1.);
#709=VECTOR('',#1180,1.);
#710=VECTOR('',#1181,1.);
#711=VECTOR('',#1182,1.);
#712=VECTOR('',#1213,1.);
#713=VECTOR('',#1234,1.);
#714=VECTOR('',#1235,1.);
#715=VECTOR('',#1236,1.);
#716=VECTOR('',#1237,1.);
#717=VECTOR('',#1238,1.);
#718=VECTOR('',#1239,1.);
#719=VECTOR('',#1240,1.);
#720=VECTOR('',#1241,1.);
#721=VECTOR('',#1242,1.);
#722=VECTOR('',#1243,1.);
#723=VECTOR('',#1244,1.);
#724=VECTOR('',#1245,1.);
#725=VECTOR('',#1248,1.);
#726=VECTOR('',#1249,1.);
#727=VECTOR('',#1250,1.);
#728=VECTOR('',#1253,1.);
#729=VECTOR('',#1256,1.);
#730=VECTOR('',#1257,1.);
#731=VECTOR('',#1258,1.);
#732=VECTOR('',#1261,1.);
#733=VECTOR('',#1262,1.);
#734=VECTOR('',#1263,1.);
#735=VECTOR('',#1266,1.);
#736=VECTOR('',#1267,1.);
#737=VECTOR('',#1268,1.);
#738=VECTOR('',#1271,1.);
#739=VECTOR('',#1272,1.);
#740=VECTOR('',#1273,1.);
#741=VECTOR('',#1276,1.);
#742=VECTOR('',#1277,1.);
#743=VECTOR('',#1278,1.);
#744=VECTOR('',#1281,1.);
#745=VECTOR('',#1312,1.);
#746=VECTOR('',#1315,1.);
#747=VECTOR('',#1316,1.);
#748=VECTOR('',#1319,1.);
#749=VECTOR('',#1322,1.);
#750=VECTOR('',#1331,1.);
#751=VECTOR('',#1334,1.);
#752=EDGE_LOOP('',(#48,#49,#50,#51));
#753=EDGE_LOOP('',(#52,#53,#54,#55,#56,#57,#58,#59,#60,#61,#62,#63,#64,
#65,#66,#67));
#754=EDGE_LOOP('',(#68,#69,#70,#71));
#755=EDGE_LOOP('',(#72,#73,#74,#75,#76,#77));
#756=EDGE_LOOP('',(#78,#79,#80,#81));
#757=EDGE_LOOP('',(#82,#83,#84,#85));
#758=EDGE_LOOP('',(#86,#87,#88,#89));
#759=EDGE_LOOP('',(#90,#91,#92,#93));
#760=EDGE_LOOP('',(#94,#95,#96,#97));
#761=EDGE_LOOP('',(#98,#99,#100,#101));
#762=EDGE_LOOP('',(#102,#103,#104,#105));
#763=EDGE_LOOP('',(#106,#107,#108,#109));
#764=EDGE_LOOP('',(#110,#111,#112,#113));
#765=EDGE_LOOP('',(#114,#115,#116,#117));
#766=EDGE_LOOP('',(#118,#119,#120,#121));
#767=EDGE_LOOP('',(#122,#123,#124,#125));
#768=EDGE_LOOP('',(#126,#127,#128,#129));
#769=EDGE_LOOP('',(#130,#131,#132,#133));
#770=EDGE_LOOP('',(#134,#135,#136,#137));
#771=EDGE_LOOP('',(#138));
#772=EDGE_LOOP('',(#139));
#773=EDGE_LOOP('',(#140,#141,#142,#143));
#774=EDGE_LOOP('',(#144,#145,#146,#147,#148,#149,#150,#151));
#775=EDGE_LOOP('',(#152,#153,#154,#155,#156,#157));
#776=EDGE_LOOP('',(#158,#159,#160,#161));
#777=EDGE_LOOP('',(#162,#163,#164,#165));
#778=EDGE_LOOP('',(#166));
#779=EDGE_LOOP('',(#167));
#780=EDGE_LOOP('',(#168));
#781=EDGE_LOOP('',(#169));
#782=EDGE_LOOP('',(#170,#171,#172,#173,#174,#175,#176,#177,#178,#179,#180,
#181,#182,#183,#184,#185));
#783=EDGE_LOOP('',(#186,#187,#188,#189,#190,#191,#192,#193));
#784=EDGE_LOOP('',(#194,#195,#196,#197,#198,#199));
#785=EDGE_LOOP('',(#200,#201,#202,#203));
#786=EDGE_LOOP('',(#204,#205,#206,#207,#208,#209));
#787=EDGE_LOOP('',(#210,#211,#212,#213,#214,#215));
#788=EDGE_LOOP('',(#216,#217,#218,#219,#220,#221));
#789=EDGE_LOOP('',(#222,#223,#224,#225,#226,#227));
#790=EDGE_LOOP('',(#228,#229,#230,#231,#232,#233));
#791=EDGE_LOOP('',(#234,#235,#236,#237));
#792=EDGE_LOOP('',(#238));
#793=EDGE_LOOP('',(#239));
#794=EDGE_LOOP('',(#240));
#795=EDGE_LOOP('',(#241));
#796=EDGE_LOOP('',(#242));
#797=EDGE_LOOP('',(#243));
#798=EDGE_LOOP('',(#244));
#799=EDGE_LOOP('',(#245));
#800=EDGE_LOOP('',(#246));
#801=EDGE_LOOP('',(#247));
#802=EDGE_LOOP('',(#248));
#803=EDGE_LOOP('',(#249));
#804=EDGE_LOOP('',(#250));
#805=EDGE_LOOP('',(#251));
#806=EDGE_LOOP('',(#252,#253,#254,#255));
#807=EDGE_LOOP('',(#256,#257,#258,#259));
#808=EDGE_LOOP('',(#260,#261,#262,#263));
#809=EDGE_LOOP('',(#264,#265,#266,#267));
#810=EDGE_LOOP('',(#268,#269,#270,#271));
#811=EDGE_LOOP('',(#272));
#812=EDGE_LOOP('',(#273));
#813=EDGE_LOOP('',(#274));
#814=EDGE_LOOP('',(#275));
#815=EDGE_LOOP('',(#276,#277,#278,#279));
#816=EDGE_LOOP('',(#280,#281,#282,#283));
#817=EDGE_LOOP('',(#284,#285,#286,#287));
#818=EDGE_LOOP('',(#288,#289,#290,#291));
#819=EDGE_LOOP('',(#292,#293,#294,#295));
#820=EDGE_LOOP('',(#296,#297,#298,#299));
#821=EDGE_LOOP('',(#300,#301,#302,#303));
#822=EDGE_LOOP('',(#304,#305,#306,#307));
#823=EDGE_LOOP('',(#308,#309,#310,#311));
#824=FACE_BOUND('',#752,.T.);
#825=FACE_BOUND('',#753,.T.);
#826=FACE_BOUND('',#754,.T.);
#827=FACE_BOUND('',#755,.T.);
#828=FACE_BOUND('',#756,.T.);
#829=FACE_BOUND('',#757,.T.);
#830=FACE_BOUND('',#758,.T.);
#831=FACE_BOUND('',#759,.T.);
#832=FACE_BOUND('',#760,.T.);
#833=FACE_BOUND('',#761,.T.);
#834=FACE_BOUND('',#762,.T.);
#835=FACE_BOUND('',#763,.T.);
#836=FACE_BOUND('',#764,.T.);
#837=FACE_BOUND('',#765,.T.);
#838=FACE_BOUND('',#766,.T.);
#839=FACE_BOUND('',#767,.T.);
#840=FACE_BOUND('',#768,.T.);
#841=FACE_BOUND('',#769,.T.);
#842=FACE_BOUND('',#770,.T.);
#843=FACE_BOUND('',#771,.T.);
#844=FACE_BOUND('',#772,.T.);
#845=FACE_BOUND('',#773,.T.);
#846=FACE_BOUND('',#774,.T.);
#847=FACE_BOUND('',#775,.T.);
#848=FACE_BOUND('',#776,.T.);
#849=FACE_BOUND('',#777,.T.);
#850=FACE_BOUND('',#778,.T.);
#851=FACE_BOUND('',#779,.T.);
#852=FACE_BOUND('',#780,.T.);
#853=FACE_BOUND('',#781,.T.);
#854=FACE_BOUND('',#782,.T.);
#855=FACE_BOUND('',#783,.T.);
#856=FACE_BOUND('',#784,.T.);
#857=FACE_BOUND('',#785,.T.);
#858=FACE_BOUND('',#786,.T.);
#859=FACE_BOUND('',#787,.T.);
#860=FACE_BOUND('',#788,.T.);
#861=FACE_BOUND('',#789,.T.);
#862=FACE_BOUND('',#790,.T.);
#863=FACE_BOUND('',#791,.T.);
#864=FACE_BOUND('',#792,.T.);
#865=FACE_BOUND('',#793,.T.);
#866=FACE_BOUND('',#794,.T.);
#867=FACE_BOUND('',#795,.T.);
#868=FACE_BOUND('',#796,.T.);
#869=FACE_BOUND('',#797,.T.);
#870=FACE_BOUND('',#798,.T.);
#871=FACE_BOUND('',#799,.T.);
#872=FACE_BOUND('',#800,.T.);
#873=FACE_BOUND('',#801,.T.);
#874=FACE_BOUND('',#802,.T.);
#875=FACE_BOUND('',#803,.T.);
#876=FACE_BOUND('',#804,.T.);
#877=FACE_BOUND('',#805,.T.);
#878=FACE_BOUND('',#806,.T.);
#879=FACE_BOUND('',#807,.T.);
#880=FACE_BOUND('',#808,.T.);
#881=FACE_BOUND('',#809,.T.);
#882=FACE_BOUND('',#810,.T.);
#883=FACE_BOUND('',#811,.T.);
#884=FACE_BOUND('',#812,.T.);
#885=FACE_BOUND('',#813,.T.);
#886=FACE_BOUND('',#814,.T.);
#887=FACE_BOUND('',#815,.T.);
#888=FACE_BOUND('',#816,.T.);
#889=FACE_BOUND('',#817,.T.);
#890=FACE_BOUND('',#818,.T.);
#891=FACE_BOUND('',#819,.T.);
#892=FACE_BOUND('',#820,.T.);
#893=FACE_BOUND('',#821,.T.);
#894=FACE_BOUND('',#822,.T.);
#895=FACE_BOUND('',#823,.T.);
#896=PLANE('',#1005);
#897=PLANE('',#1006);
#898=PLANE('',#1007);
#899=PLANE('',#1010);
#900=PLANE('',#1011);
#901=PLANE('',#1012);
#902=PLANE('',#1013);
#903=PLANE('',#1014);
#904=PLANE('',#1015);
#905=PLANE('',#1016);
#906=PLANE('',#1017);
#907=PLANE('',#1018);
#908=PLANE('',#1019);
#909=PLANE('',#1032);
#910=PLANE('',#1035);
#911=PLANE('',#1040);
#912=PLANE('',#1045);
#913=PLANE('',#1046);
#914=PLANE('',#1047);
#915=PLANE('',#1048);
#916=PLANE('',#1049);
#917=PLANE('',#1050);
#918=PLANE('',#1051);
#919=PLANE('',#1052);
#920=PLANE('',#1055);
#921=PLANE('',#1058);
#922=PLANE('',#1061);
#923=PLANE('',#1064);
#924=PLANE('',#1065);
#925=PLANE('',#1068);
#926=PLANE('',#1069);
#927=PLANE('',#1070);
#928=PLANE('',#1071);
#929=PLANE('',#1074);
#930=PLANE('',#1075);
#931=PLANE('',#1076);
#932=PLANE('',#1077);
#933=PLANE('',#1078);
#934=PLANE('',#1079);
#935=PLANE('',#1080);
#936=PLANE('',#1081);
#937=PLANE('',#1082);
#938=ADVANCED_FACE('',(#824),#896,.F.);
#939=ADVANCED_FACE('',(#825,#826),#897,.T.);
#940=ADVANCED_FACE('',(#827,#828),#898,.F.);
#941=ADVANCED_FACE('',(#829),#899,.F.);
#942=ADVANCED_FACE('',(#830),#900,.T.);
#943=ADVANCED_FACE('',(#831),#901,.T.);
#944=ADVANCED_FACE('',(#832),#902,.T.);
#945=ADVANCED_FACE('',(#833),#903,.T.);
#946=ADVANCED_FACE('',(#834),#904,.T.);
#947=ADVANCED_FACE('',(#835),#905,.T.);
#948=ADVANCED_FACE('',(#836),#906,.T.);
#949=ADVANCED_FACE('',(#837),#907,.F.);
#950=ADVANCED_FACE('',(#838),#908,.T.);
#951=ADVANCED_FACE('',(#839),#12,.F.);
#952=ADVANCED_FACE('',(#840),#13,.F.);
#953=ADVANCED_FACE('',(#841),#14,.F.);
#954=ADVANCED_FACE('',(#842),#15,.F.);
#955=ADVANCED_FACE('',(#843,#844,#845),#909,.T.);
#956=ADVANCED_FACE('',(#846,#847),#910,.T.);
#957=ADVANCED_FACE('',(#848),#16,.T.);
#958=ADVANCED_FACE('',(#849),#17,.T.);
#959=ADVANCED_FACE('',(#850,#851,#852,#853,#854,#855),#911,.T.);
#960=ADVANCED_FACE('',(#856),#912,.F.);
#961=ADVANCED_FACE('',(#857),#913,.T.);
#962=ADVANCED_FACE('',(#858),#914,.T.);
#963=ADVANCED_FACE('',(#859),#915,.F.);
#964=ADVANCED_FACE('',(#860),#916,.F.);
#965=ADVANCED_FACE('',(#861),#917,.T.);
#966=ADVANCED_FACE('',(#862),#918,.T.);
#967=ADVANCED_FACE('',(#863),#919,.F.);
#968=ADVANCED_FACE('',(#864,#865),#18,.F.);
#969=ADVANCED_FACE('',(#866),#920,.T.);
#970=ADVANCED_FACE('',(#867,#868),#19,.F.);
#971=ADVANCED_FACE('',(#869),#921,.T.);
#972=ADVANCED_FACE('',(#870,#871),#20,.F.);
#973=ADVANCED_FACE('',(#872),#922,.T.);
#974=ADVANCED_FACE('',(#873,#874),#21,.F.);
#975=ADVANCED_FACE('',(#875),#923,.T.);
#976=ADVANCED_FACE('',(#876,#877,#878),#924,.T.);
#977=ADVANCED_FACE('',(#879),#925,.T.);
#978=ADVANCED_FACE('',(#880),#926,.F.);
#979=ADVANCED_FACE('',(#881),#927,.F.);
#980=ADVANCED_FACE('',(#882),#928,.T.);
#981=ADVANCED_FACE('',(#883,#884),#22,.F.);
#982=ADVANCED_FACE('',(#885,#886),#23,.F.);
#983=ADVANCED_FACE('',(#887),#929,.T.);
#984=ADVANCED_FACE('',(#888),#930,.T.);
#985=ADVANCED_FACE('',(#889),#931,.T.);
#986=ADVANCED_FACE('',(#890),#932,.F.);
#987=ADVANCED_FACE('',(#891),#933,.T.);
#988=ADVANCED_FACE('',(#892),#934,.T.);
#989=ADVANCED_FACE('',(#893),#935,.T.);
#990=ADVANCED_FACE('',(#894),#936,.T.);
#991=ADVANCED_FACE('',(#895),#937,.T.);
#992=CLOSED_SHELL('',(#938,#939,#940,#941,#942,#943,#944,#945,#946,#947,
#948,#949,#950,#951,#952,#953,#954,#955,#956,#957,#958,#959,#960,#961,#962,
#963,#964,#965,#966,#967,#968,#969,#970,#971,#972,#973,#974,#975,#976,#977,
#978,#979,#980,#981,#982,#983,#984,#985,#986,#987,#988,#989,#990,#991));
#993=STYLED_ITEM('',(#994),#1001);
#994=PRESENTATION_STYLE_ASSIGNMENT((#995));
#995=SURFACE_STYLE_USAGE(.BOTH.,#996);
#996=SURFACE_SIDE_STYLE('',(#997));
#997=SURFACE_STYLE_FILL_AREA(#998);
#998=FILL_AREA_STYLE('',(#999));
#999=FILL_AREA_STYLE_COLOUR('',#1000);
#1000=COLOUR_RGB('',0.647058823529412,0.647058823529412,0.647058823529412);
#1001=MANIFOLD_SOLID_BREP('body',#992);
#1002=SHAPE_DEFINITION_REPRESENTATION(#1634,#1003);
#1003=SHAPE_REPRESENTATION('body',(#1004),#1629);
#1004=AXIS2_PLACEMENT_3D('',#1349,#1083,#1084);
#1005=AXIS2_PLACEMENT_3D('',#1350,#1085,#1086);
#1006=AXIS2_PLACEMENT_3D('',#1359,#1091,#1092);
#1007=AXIS2_PLACEMENT_3D('',#1400,#1113,#1114);
#1008=AXIS2_PLACEMENT_3D('',#1404,#1116,#1117);
#1009=AXIS2_PLACEMENT_3D('',#1408,#1119,#1120);
#1010=AXIS2_PLACEMENT_3D('',#1421,#1127,#1128);
#1011=AXIS2_PLACEMENT_3D('',#1427,#1132,#1133);
#1012=AXIS2_PLACEMENT_3D('',#1436,#1138,#1139);
#1013=AXIS2_PLACEMENT_3D('',#1445,#1144,#1145);
#1014=AXIS2_PLACEMENT_3D('',#1454,#1150,#1151);
#1015=AXIS2_PLACEMENT_3D('',#1463,#1156,#1157);
#1016=AXIS2_PLACEMENT_3D('',#1472,#1162,#1163);
#1017=AXIS2_PLACEMENT_3D('',#1481,#1168,#1169);
#1018=AXIS2_PLACEMENT_3D('',#1487,#1173,#1174);
#1019=AXIS2_PLACEMENT_3D('',#1493,#1178,#1179);
#1020=AXIS2_PLACEMENT_3D('',#1499,#1183,#1184);
#1021=AXIS2_PLACEMENT_3D('',#1500,#1185,#1186);
#1022=AXIS2_PLACEMENT_3D('',#1501,#1187,#1188);
#1023=AXIS2_PLACEMENT_3D('',#1502,#1189,#1190);
#1024=AXIS2_PLACEMENT_3D('',#1503,#1191,#1192);
#1025=AXIS2_PLACEMENT_3D('',#1504,#1193,#1194);
#1026=AXIS2_PLACEMENT_3D('',#1505,#1195,#1196);
#1027=AXIS2_PLACEMENT_3D('',#1506,#1197,#1198);
#1028=AXIS2_PLACEMENT_3D('',#1507,#1199,#1200);
#1029=AXIS2_PLACEMENT_3D('',#1508,#1201,#1202);
#1030=AXIS2_PLACEMENT_3D('',#1509,#1203,#1204);
#1031=AXIS2_PLACEMENT_3D('',#1510,#1205,#1206);
#1032=AXIS2_PLACEMENT_3D('',#1511,#1207,#1208);
#1033=AXIS2_PLACEMENT_3D('',#1512,#1209,#1210);
#1034=AXIS2_PLACEMENT_3D('',#1514,#1211,#1212);
#1035=AXIS2_PLACEMENT_3D('',#1517,#1214,#1215);
#1036=AXIS2_PLACEMENT_3D('',#1518,#1216,#1217);
#1037=AXIS2_PLACEMENT_3D('',#1519,#1218,#1219);
#1038=AXIS2_PLACEMENT_3D('',#1520,#1220,#1221);
#1039=AXIS2_PLACEMENT_3D('',#1521,#1222,#1223);
#1040=AXIS2_PLACEMENT_3D('',#1522,#1224,#1225);
#1041=AXIS2_PLACEMENT_3D('',#1523,#1226,#1227);
#1042=AXIS2_PLACEMENT_3D('',#1525,#1228,#1229);
#1043=AXIS2_PLACEMENT_3D('',#1527,#1230,#1231);
#1044=AXIS2_PLACEMENT_3D('',#1529,#1232,#1233);
#1045=AXIS2_PLACEMENT_3D('',#1551,#1246,#1247);
#1046=AXIS2_PLACEMENT_3D('',#1556,#1251,#1252);
#1047=AXIS2_PLACEMENT_3D('',#1558,#1254,#1255);
#1048=AXIS2_PLACEMENT_3D('',#1563,#1259,#1260);
#1049=AXIS2_PLACEMENT_3D('',#1568,#1264,#1265);
#1050=AXIS2_PLACEMENT_3D('',#1573,#1269,#1270);
#1051=AXIS2_PLACEMENT_3D('',#1578,#1274,#1275);
#1052=AXIS2_PLACEMENT_3D('',#1583,#1279,#1280);
#1053=AXIS2_PLACEMENT_3D('',#1585,#1282,#1283);
#1054=AXIS2_PLACEMENT_3D('',#1586,#1284,#1285);
#1055=AXIS2_PLACEMENT_3D('',#1588,#1286,#1287);
#1056=AXIS2_PLACEMENT_3D('',#1589,#1288,#1289);
#1057=AXIS2_PLACEMENT_3D('',#1590,#1290,#1291);
#1058=AXIS2_PLACEMENT_3D('',#1592,#1292,#1293);
#1059=AXIS2_PLACEMENT_3D('',#1593,#1294,#1295);
#1060=AXIS2_PLACEMENT_3D('',#1594,#1296,#1297);
#1061=AXIS2_PLACEMENT_3D('',#1596,#1298,#1299);
#1062=AXIS2_PLACEMENT_3D('',#1597,#1300,#1301);
#1063=AXIS2_PLACEMENT_3D('',#1598,#1302,#1303);
#1064=AXIS2_PLACEMENT_3D('',#1600,#1304,#1305);
#1065=AXIS2_PLACEMENT_3D('',#1601,#1306,#1307);
#1066=AXIS2_PLACEMENT_3D('',#1602,#1308,#1309);
#1067=AXIS2_PLACEMENT_3D('',#1604,#1310,#1311);
#1068=AXIS2_PLACEMENT_3D('',#1607,#1313,#1314);
#1069=AXIS2_PLACEMENT_3D('',#1610,#1317,#1318);
#1070=AXIS2_PLACEMENT_3D('',#1612,#1320,#1321);
#1071=AXIS2_PLACEMENT_3D('',#1614,#1323,#1324);
#1072=AXIS2_PLACEMENT_3D('',#1615,#1325,#1326);
#1073=AXIS2_PLACEMENT_3D('',#1616,#1327,#1328);
#1074=AXIS2_PLACEMENT_3D('',#1617,#1329,#1330);
#1075=AXIS2_PLACEMENT_3D('',#1619,#1332,#1333);
#1076=AXIS2_PLACEMENT_3D('',#1621,#1335,#1336);
#1077=AXIS2_PLACEMENT_3D('',#1622,#1337,#1338);
#1078=AXIS2_PLACEMENT_3D('',#1623,#1339,#1340);
#1079=AXIS2_PLACEMENT_3D('',#1624,#1341,#1342);
#1080=AXIS2_PLACEMENT_3D('',#1625,#1343,#1344);
#1081=AXIS2_PLACEMENT_3D('',#1626,#1345,#1346);
#1082=AXIS2_PLACEMENT_3D('',#1627,#1347,#1348);
#1083=DIRECTION('',(0.,0.,1.));
#1084=DIRECTION('',(1.,0.,0.));
#1085=DIRECTION('',(-1.,0.,0.));
#1086=DIRECTION('',(0.,0.,1.));
#1087=DIRECTION('',(0.,0.,-1.));
#1088=DIRECTION('',(0.,1.,0.));
#1089=DIRECTION('',(0.,0.,-1.));
#1090=DIRECTION('',(0.,1.,0.));
#1091=DIRECTION('',(0.,0.,1.));
#1092=DIRECTION('',(1.,0.,0.));
#1093=DIRECTION('',(-1.,0.,0.));
#1094=DIRECTION('',(0.,-1.,0.));
#1095=DIRECTION('',(-1.,0.,0.));
#1096=DIRECTION('',(-0.707106781186548,0.707106781186548,0.));
#1097=DIRECTION('',(0.,-1.,0.));
#1098=DIRECTION('',(1.,5.55111512312579E-15,0.));
#1099=DIRECTION('',(0.,-1.,0.));
#1100=DIRECTION('',(-0.707106781186548,-0.707106781186548,0.));
#1101=DIRECTION('',(1.,0.,0.));
#1102=DIRECTION('',(0.,1.,0.));
#1103=DIRECTION('',(1.,0.,0.));
#1104=DIRECTION('',(0.707106781186548,-0.707106781186547,0.));
#1105=DIRECTION('',(0.,1.,0.));
#1106=DIRECTION('',(-1.,0.,0.));
#1107=DIRECTION('',(0.,1.,0.));
#1108=DIRECTION('',(0.707106781186547,0.707106781186548,0.));
#1109=DIRECTION('',(0.,1.,0.));
#1110=DIRECTION('',(-1.,0.,0.));
#1111=DIRECTION('',(0.,1.,0.));
#1112=DIRECTION('',(-1.,-1.15648231731787E-16,0.));
#1113=DIRECTION('',(0.,0.,1.));
#1114=DIRECTION('',(1.,0.,0.));
#1115=DIRECTION('',(0.,1.,0.));
#1116=DIRECTION('',(0.,0.,1.));
#1117=DIRECTION('',(1.,0.,0.));
#1118=DIRECTION('',(-1.,0.,0.));
#1119=DIRECTION('',(0.,0.,1.));
#1120=DIRECTION('',(1.,0.,0.));
#1121=DIRECTION('',(0.,-1.,0.));
#1122=DIRECTION('',(-1.,0.,0.));
#1123=DIRECTION('',(-1.,0.,0.));
#1124=DIRECTION('',(0.,1.,0.));
#1125=DIRECTION('',(-1.,-1.15648231731787E-16,0.));
#1126=DIRECTION('',(0.,1.,0.));
#1127=DIRECTION('',(0.,1.,0.));
#1128=DIRECTION('',(0.,0.,1.));
#1129=DIRECTION('',(0.,0.,-1.));
#1130=DIRECTION('',(1.,0.,0.));
#1131=DIRECTION('',(0.,0.,-1.));
#1132=DIRECTION('',(0.,1.,0.));
#1133=DIRECTION('',(0.,0.,1.));
#1134=DIRECTION('',(0.,0.,-1.));
#1135=DIRECTION('',(-1.,0.,1.15648231731787E-16));
#1136=DIRECTION('',(0.,0.,-1.));
#1137=DIRECTION('',(1.,0.,0.));
#1138=DIRECTION('',(-1.,0.,0.));
#1139=DIRECTION('',(0.,0.,1.));
#1140=DIRECTION('',(0.,0.,-1.));
#1141=DIRECTION('',(0.,-1.,0.));
#1142=DIRECTION('',(0.,0.,-1.));
#1143=DIRECTION('',(0.,1.,0.));
#1144=DIRECTION('',(1.,0.,0.));
#1145=DIRECTION('',(0.,0.,-1.));
#1146=DIRECTION('',(0.,0.,-1.));
#1147=DIRECTION('',(0.,1.,0.));
#1148=DIRECTION('',(0.,0.,-1.));
#1149=DIRECTION('',(0.,-1.,0.));
#1150=DIRECTION('',(0.,1.,0.));
#1151=DIRECTION('',(0.,0.,1.));
#1152=DIRECTION('',(0.,0.,-1.));
#1153=DIRECTION('',(-1.,0.,0.));
#1154=DIRECTION('',(0.,0.,-1.));
#1155=DIRECTION('',(1.,0.,0.));
#1156=DIRECTION('',(-1.,0.,0.));
#1157=DIRECTION('',(0.,0.,1.));
#1158=DIRECTION('',(0.,0.,-1.));
#1159=DIRECTION('',(0.,-1.,0.));
#1160=DIRECTION('',(0.,0.,-1.));
#1161=DIRECTION('',(0.,1.,0.));
#1162=DIRECTION('',(0.,-1.,0.));
#1163=DIRECTION('',(0.,0.,-1.));
#1164=DIRECTION('',(0.,0.,-1.));
#1165=DIRECTION('',(1.,-9.91270557701033E-17,0.));
#1166=DIRECTION('',(0.,0.,-1.));
#1167=DIRECTION('',(-1.,0.,0.));
#1168=DIRECTION('',(1.,0.,0.));
#1169=DIRECTION('',(0.,0.,-1.));
#1170=DIRECTION('',(0.,0.,-1.));
#1171=DIRECTION('',(0.,-1.,0.));
#1172=DIRECTION('',(0.,0.,-1.));
#1173=DIRECTION('',(0.,-1.,0.));
#1174=DIRECTION('',(0.,0.,-1.));
#1175=DIRECTION('',(0.,0.,-1.));
#1176=DIRECTION('',(-1.,0.,0.));
#1177=DIRECTION('',(0.,0.,-1.));
#1178=DIRECTION('',(-1.,0.,0.));
#1179=DIRECTION('',(0.,0.,1.));
#1180=DIRECTION('',(0.,1.,0.));
#1181=DIRECTION('',(0.,0.,-1.));
#1182=DIRECTION('',(0.,0.,-1.));
#1183=DIRECTION('',(0.,0.,-1.));
#1184=DIRECTION('',(-1.,0.,0.));
#1185=DIRECTION('',(0.,0.,1.));
#1186=DIRECTION('',(1.,0.,0.));
#1187=DIRECTION('',(0.,0.,1.));
#1188=DIRECTION('',(1.,0.,0.));
#1189=DIRECTION('',(0.,0.,-1.));
#1190=DIRECTION('',(-1.,0.,0.));
#1191=DIRECTION('',(0.,0.,1.));
#1192=DIRECTION('',(1.,0.,0.));
#1193=DIRECTION('',(0.,0.,1.));
#1194=DIRECTION('',(1.,0.,0.));
#1195=DIRECTION('',(0.,0.,-1.));
#1196=DIRECTION('',(-1.,0.,0.));
#1197=DIRECTION('',(0.,0.,1.));
#1198=DIRECTION('',(1.,0.,0.));
#1199=DIRECTION('',(0.,0.,1.));
#1200=DIRECTION('',(1.,0.,0.));
#1201=DIRECTION('',(0.,0.,-1.));
#1202=DIRECTION('',(-1.,0.,0.));
#1203=DIRECTION('',(0.,0.,1.));
#1204=DIRECTION('',(1.,0.,0.));
#1205=DIRECTION('',(0.,0.,1.));
#1206=DIRECTION('',(1.,0.,0.));
#1207=DIRECTION('',(0.,-1.,0.));
#1208=DIRECTION('',(0.,0.,-1.));
#1209=DIRECTION('',(0.,-1.,0.));
#1210=DIRECTION('',(0.,0.,-1.));
#1211=DIRECTION('',(0.,-1.,0.));
#1212=DIRECTION('',(0.,0.,-1.));
#1213=DIRECTION('',(-1.,0.,0.));
#1214=DIRECTION('',(0.,0.,1.));
#1215=DIRECTION('',(1.,0.,0.));
#1216=DIRECTION('',(0.,0.,1.));
#1217=DIRECTION('',(1.,0.,0.));
#1218=DIRECTION('',(0.,0.,1.));
#1219=DIRECTION('',(1.,0.,0.));
#1220=DIRECTION('',(0.,0.,1.));
#1221=DIRECTION('',(1.,0.,0.));
#1222=DIRECTION('',(0.,0.,1.));
#1223=DIRECTION('',(1.,0.,0.));
#1224=DIRECTION('',(0.,0.,1.));
#1225=DIRECTION('',(1.,0.,0.));
#1226=DIRECTION('',(0.,0.,1.));
#1227=DIRECTION('',(1.,0.,0.));
#1228=DIRECTION('',(0.,0.,1.));
#1229=DIRECTION('',(1.,0.,0.));
#1230=DIRECTION('',(0.,0.,1.));
#1231=DIRECTION('',(1.,0.,0.));
#1232=DIRECTION('',(0.,0.,1.));
#1233=DIRECTION('',(1.,0.,0.));
#1234=DIRECTION('',(0.,-1.,0.));
#1235=DIRECTION('',(0.707106781186548,-0.707106781186548,0.));
#1236=DIRECTION('',(-1.,0.,0.));
#1237=DIRECTION('',(-1.,0.,0.));
#1238=DIRECTION('',(-0.707106781186547,-0.707106781186548,0.));
#1239=DIRECTION('',(0.,1.,0.));
#1240=DIRECTION('',(0.,1.,0.));
#1241=DIRECTION('',(-0.707106781186548,0.707106781186547,0.));
#1242=DIRECTION('',(1.,0.,0.));
#1243=DIRECTION('',(1.,0.,0.));
#1244=DIRECTION('',(0.707106781186548,0.707106781186548,0.));
#1245=DIRECTION('',(0.,-1.,0.));
#1246=DIRECTION('',(0.,1.,0.));
#1247=DIRECTION('',(0.,0.,1.));
#1248=DIRECTION('',(0.,0.,1.));
#1249=DIRECTION('',(0.707106781186548,0.,0.707106781186547));
#1250=DIRECTION('',(0.,0.,-1.));
#1251=DIRECTION('',(1.,0.,0.));
#1252=DIRECTION('',(0.,0.,-1.));
#1253=DIRECTION('',(0.,0.,-1.));
#1254=DIRECTION('',(0.,1.,0.));
#1255=DIRECTION('',(0.,0.,1.));
#1256=DIRECTION('',(0.,0.,-1.));
#1257=DIRECTION('',(0.,0.,-1.));
#1258=DIRECTION('',(-0.707106781186548,0.,-0.707106781186547));
#1259=DIRECTION('',(-1.,0.,0.));
#1260=DIRECTION('',(0.,0.,1.));
#1261=DIRECTION('',(0.,0.,1.));
#1262=DIRECTION('',(0.,-0.707106781186548,-0.707106781186547));
#1263=DIRECTION('',(0.,0.,-1.));
#1264=DIRECTION('',(0.,-1.,0.));
#1265=DIRECTION('',(0.,0.,-1.));
#1266=DIRECTION('',(0.,0.,1.));
#1267=DIRECTION('',(0.707106781186548,0.,-0.707106781186547));
#1268=DIRECTION('',(0.,0.,-1.));
#1269=DIRECTION('',(-1.,0.,0.));
#1270=DIRECTION('',(0.,0.,1.));
#1271=DIRECTION('',(0.,0.,-1.));
#1272=DIRECTION('',(0.,0.,-1.));
#1273=DIRECTION('',(0.,0.707106781186548,0.707106781186547));
#1274=DIRECTION('',(0.,-1.,0.));
#1275=DIRECTION('',(0.,0.,-1.));
#1276=DIRECTION('',(0.,0.,-1.));
#1277=DIRECTION('',(0.,0.,-1.));
#1278=DIRECTION('',(-0.707106781186548,0.,0.707106781186547));
#1279=DIRECTION('',(1.,0.,0.));
#1280=DIRECTION('',(0.,0.,-1.));
#1281=DIRECTION('',(0.,0.,1.));
#1282=DIRECTION('',(0.,0.,1.));
#1283=DIRECTION('',(1.,0.,0.));
#1284=DIRECTION('',(0.,0.,1.));
#1285=DIRECTION('',(1.,0.,0.));
#1286=DIRECTION('',(0.,0.,1.));
#1287=DIRECTION('',(1.,0.,0.));
#1288=DIRECTION('',(0.,0.,1.));
#1289=DIRECTION('',(1.,0.,0.));
#1290=DIRECTION('',(0.,0.,1.));
#1291=DIRECTION('',(1.,0.,0.));
#1292=DIRECTION('',(0.,0.,1.));
#1293=DIRECTION('',(1.,0.,0.));
#1294=DIRECTION('',(0.,0.,1.));
#1295=DIRECTION('',(1.,0.,0.));
#1296=DIRECTION('',(0.,0.,1.));
#1297=DIRECTION('',(1.,0.,0.));
#1298=DIRECTION('',(0.,0.,1.));
#1299=DIRECTION('',(1.,0.,0.));
#1300=DIRECTION('',(0.,0.,1.));
#1301=DIRECTION('',(1.,0.,0.));
#1302=DIRECTION('',(0.,0.,1.));
#1303=DIRECTION('',(1.,0.,0.));
#1304=DIRECTION('',(0.,0.,1.));
#1305=DIRECTION('',(1.,0.,0.));
#1306=DIRECTION('',(0.,1.,0.));
#1307=DIRECTION('',(-1.,0.,0.));
#1308=DIRECTION('',(0.,1.,0.));
#1309=DIRECTION('',(0.,0.,1.));
#1310=DIRECTION('',(0.,1.,0.));
#1311=DIRECTION('',(0.,0.,1.));
#1312=DIRECTION('',(1.,0.,-1.15648231731787E-16));
#1313=DIRECTION('',(0.,1.,0.));
#1314=DIRECTION('',(0.,0.,1.));
#1315=DIRECTION('',(0.,0.,1.));
#1316=DIRECTION('',(0.,0.,1.));
#1317=DIRECTION('',(1.,0.,0.));
#1318=DIRECTION('',(0.,0.,-1.));
#1319=DIRECTION('',(0.,0.,1.));
#1320=DIRECTION('',(-1.15648231731787E-16,1.,0.));
#1321=DIRECTION('',(-1.,-1.15648231731787E-16,0.));
#1322=DIRECTION('',(0.,0.,1.));
#1323=DIRECTION('',(1.,0.,0.));
#1324=DIRECTION('',(0.,0.,-1.));
#1325=DIRECTION('',(0.,-1.,0.));
#1326=DIRECTION('',(0.,0.,-1.));
#1327=DIRECTION('',(0.,-1.,0.));
#1328=DIRECTION('',(0.,0.,-1.));
#1329=DIRECTION('',(1.,0.,0.));
#1330=DIRECTION('',(0.,1.,0.));
#1331=DIRECTION('',(0.,-1.,0.));
#1332=DIRECTION('',(-1.,0.,0.));
#1333=DIRECTION('',(0.,-1.,0.));
#1334=DIRECTION('',(0.,1.,0.));
#1335=DIRECTION('',(-0.707106781186547,0.,-0.707106781186548));
#1336=DIRECTION('',(0.,-1.,0.));
#1337=DIRECTION('',(-0.707106781186547,0.,0.707106781186548));
#1338=DIRECTION('',(0.,-1.,0.));
#1339=DIRECTION('',(-8.177564888978E-17,0.707106781186547,-0.707106781186548));
#1340=DIRECTION('',(-1.,0.,1.15648231731787E-16));
#1341=DIRECTION('',(-0.707106781186548,-0.707106781186548,0.));
#1342=DIRECTION('',(0.,0.,1.));
#1343=DIRECTION('',(-0.707106781186548,0.707106781186547,0.));
#1344=DIRECTION('',(0.,0.,1.));
#1345=DIRECTION('',(0.707106781186547,0.707106781186548,0.));
#1346=DIRECTION('',(0.,0.,1.));
#1347=DIRECTION('',(0.707106781186548,-0.707106781186548,0.));
#1348=DIRECTION('',(0.,0.,1.));
#1349=CARTESIAN_POINT('',(0.,0.,0.));
#1350=CARTESIAN_POINT('',(-0.07,1.38777878078145E-17,0.055));
#1351=CARTESIAN_POINT('',(-0.07,-0.015,0.055));
#1352=CARTESIAN_POINT('',(-0.07,-0.015,0.055));
#1353=CARTESIAN_POINT('',(-0.07,-0.015,0.053));
#1354=CARTESIAN_POINT('',(-0.07,1.38777878078145E-17,0.053));
#1355=CARTESIAN_POINT('',(-0.07,0.015,0.053));
#1356=CARTESIAN_POINT('',(-0.07,0.015,0.055));
#1357=CARTESIAN_POINT('',(-0.07,0.015,0.055));
#1358=CARTESIAN_POINT('',(-0.07,1.38777878078145E-17,0.055));
#1359=CARTESIAN_POINT('',(0.,6.93889390390723E-18,0.003));
#1360=CARTESIAN_POINT('',(0.065,-0.015,0.003));
#1361=CARTESIAN_POINT('',(0.075,-0.015,0.003));
#1362=CARTESIAN_POINT('',(0.065,-0.015,0.003));
#1363=CARTESIAN_POINT('',(0.075,-0.0275,0.003));
#1364=CARTESIAN_POINT('',(0.075,0.0150000000000008,0.003));
#1365=CARTESIAN_POINT('',(0.065,0.0150000000000008,0.003));
#1366=CARTESIAN_POINT('',(0.065,0.0150000000000008,0.003));
#1367=CARTESIAN_POINT('',(0.065,0.0150000000000008,0.003));
#1368=CARTESIAN_POINT('',(0.06,0.0200000000000008,0.003));
#1369=CARTESIAN_POINT('',(0.06,0.0200000000000008,0.003));
#1370=CARTESIAN_POINT('',(0.06,0.0250000000000008,0.003));
#1371=CARTESIAN_POINT('',(-0.0725,0.025,0.003));
#1372=CARTESIAN_POINT('',(-0.06,0.025,0.003));
#1373=CARTESIAN_POINT('',(-0.06,0.02,0.003));
#1374=CARTESIAN_POINT('',(-0.06,0.02,0.003));
#1375=CARTESIAN_POINT('',(-0.06,0.02,0.003));
#1376=CARTESIAN_POINT('',(-0.065,0.015,0.003));
#1377=CARTESIAN_POINT('',(-0.065,0.015,0.003));
#1378=CARTESIAN_POINT('',(-0.075,0.015,0.003));
#1379=CARTESIAN_POINT('',(-0.075,1.38777878078145E-17,0.003));
#1380=CARTESIAN_POINT('',(-0.075,-0.015,0.003));
#1381=CARTESIAN_POINT('',(-0.065,-0.015,0.003));
#1382=CARTESIAN_POINT('',(-0.065,-0.015,0.003));
#1383=CARTESIAN_POINT('',(-0.065,-0.015,0.003));
#1384=CARTESIAN_POINT('',(-0.06,-0.02,0.003));
#1385=CARTESIAN_POINT('',(-0.06,-0.02,0.003));
#1386=CARTESIAN_POINT('',(-0.06,-0.03,0.003));
#1387=CARTESIAN_POINT('',(-0.0725,-0.03,0.003));
#1388=CARTESIAN_POINT('',(0.06,-0.03,0.003));
#1389=CARTESIAN_POINT('',(0.06,-0.02,0.003));
#1390=CARTESIAN_POINT('',(0.06,-0.02,0.003));
#1391=CARTESIAN_POINT('',(0.06,-0.02,0.003));
#1392=CARTESIAN_POINT('',(0.0576417509071497,-0.0200838753147938,0.003));
#1393=CARTESIAN_POINT('',(0.0576417509071497,-0.0250838753147938,0.003));
#1394=CARTESIAN_POINT('',(0.0576417509071497,-0.0150838753147938,0.003));
#1395=CARTESIAN_POINT('',(0.0501417509071497,-0.0250838753147938,0.003));
#1396=CARTESIAN_POINT('',(0.0426417509071498,-0.0250838753147938,0.003));
#1397=CARTESIAN_POINT('',(0.0426417509071498,-0.0200838753147938,0.003));
#1398=CARTESIAN_POINT('',(0.0426417509071498,-0.0150838753147938,0.003));
#1399=CARTESIAN_POINT('',(0.0501417509071497,-0.0150838753147938,0.003));
#1400=CARTESIAN_POINT('',(0.,0.,0.));
#1401=CARTESIAN_POINT('',(-0.078,0.0315,0.));
#1402=CARTESIAN_POINT('',(-0.078,-0.033,0.));
#1403=CARTESIAN_POINT('',(-0.078,0.0255,0.));
#1404=CARTESIAN_POINT('',(-0.0705,0.0255,0.));
#1405=CARTESIAN_POINT('',(-0.0705,0.033,0.));
#1406=CARTESIAN_POINT('',(0.,0.033,0.));
#1407=CARTESIAN_POINT('',(0.0705,0.033,0.));
#1408=CARTESIAN_POINT('',(0.0705,0.0255,0.));
#1409=CARTESIAN_POINT('',(0.078,0.0255,0.));
#1410=CARTESIAN_POINT('',(0.078,-0.0315,0.));
#1411=CARTESIAN_POINT('',(0.078,-0.033,0.));
#1412=CARTESIAN_POINT('',(-0.0015,-0.033,0.));
#1413=CARTESIAN_POINT('',(0.,-0.0250838753147938,0.));
#1414=CARTESIAN_POINT('',(0.0576417509071497,-0.0250838753147938,0.));
#1415=CARTESIAN_POINT('',(0.0426417509071498,-0.0250838753147938,0.));
#1416=CARTESIAN_POINT('',(0.0576417509071497,0.,0.));
#1417=CARTESIAN_POINT('',(0.0576417509071497,-0.0150838753147938,0.));
#1418=CARTESIAN_POINT('',(1.74442350781866E-18,-0.0150838753147938,0.));
#1419=CARTESIAN_POINT('',(0.0426417509071498,-0.0150838753147938,0.));
#1420=CARTESIAN_POINT('',(0.0426417509071498,0.,0.));
#1421=CARTESIAN_POINT('',(0.0725,0.025,0.055));
#1422=CARTESIAN_POINT('',(0.06,0.0250000000000008,0.055));
#1423=CARTESIAN_POINT('',(0.06,0.025,0.055));
#1424=CARTESIAN_POINT('',(0.0725,0.025,0.055));
#1425=CARTESIAN_POINT('',(-0.06,0.025,0.055));
#1426=CARTESIAN_POINT('',(-0.06,0.025,0.055));
#1427=CARTESIAN_POINT('',(-0.0725,-0.025,0.055));
#1428=CARTESIAN_POINT('',(0.06,-0.025,0.055));
#1429=CARTESIAN_POINT('',(0.06,-0.025,0.055));
#1430=CARTESIAN_POINT('',(0.06,-0.025,0.053));
#1431=CARTESIAN_POINT('',(-0.06,-0.025,0.053));
#1432=CARTESIAN_POINT('',(-0.06,-0.025,0.053));
#1433=CARTESIAN_POINT('',(-0.06,-0.025,0.055));
#1434=CARTESIAN_POINT('',(-0.06,-0.025,0.055));
#1435=CARTESIAN_POINT('',(-0.0725,-0.025,0.055));
#1436=CARTESIAN_POINT('',(0.07,-0.0275,0.055));
#1437=CARTESIAN_POINT('',(0.07,0.0150000000000008,0.055));
#1438=CARTESIAN_POINT('',(0.07,0.0150000000000008,0.055));
#1439=CARTESIAN_POINT('',(0.07,0.0150000000000008,0.053));
#1440=CARTESIAN_POINT('',(0.07,-0.015,0.053));
#1441=CARTESIAN_POINT('',(0.07,-0.015,0.053));
#1442=CARTESIAN_POINT('',(0.07,-0.015,0.055));
#1443=CARTESIAN_POINT('',(0.07,-0.015,0.055));
#1444=CARTESIAN_POINT('',(0.07,-0.0275,0.055));
#1445=CARTESIAN_POINT('',(-0.075,0.,0.06));
#1446=CARTESIAN_POINT('',(-0.075,-0.025,0.06));
#1447=CARTESIAN_POINT('',(-0.075,-0.025,0.06));
#1448=CARTESIAN_POINT('',(-0.075,-0.025,0.055));
#1449=CARTESIAN_POINT('',(-0.075,0.,0.055));
#1450=CARTESIAN_POINT('',(-0.075,0.025,0.055));
#1451=CARTESIAN_POINT('',(-0.075,0.025,0.06));
#1452=CARTESIAN_POINT('',(-0.075,0.025,0.06));
#1453=CARTESIAN_POINT('',(-0.075,0.,0.06));
#1454=CARTESIAN_POINT('',(0.,-0.03,0.06));
#1455=CARTESIAN_POINT('',(0.07,-0.03,0.06));
#1456=CARTESIAN_POINT('',(0.07,-0.03,0.06));
#1457=CARTESIAN_POINT('',(0.07,-0.03,0.055));
#1458=CARTESIAN_POINT('',(0.,-0.03,0.055));
#1459=CARTESIAN_POINT('',(-0.07,-0.03,0.055));
#1460=CARTESIAN_POINT('',(-0.07,-0.03,0.06));
#1461=CARTESIAN_POINT('',(-0.07,-0.03,0.06));
#1462=CARTESIAN_POINT('',(0.,-0.03,0.06));
#1463=CARTESIAN_POINT('',(0.075,3.46944695195361E-18,0.06));
#1464=CARTESIAN_POINT('',(0.075,0.025,0.06));
#1465=CARTESIAN_POINT('',(0.075,0.025,0.06));
#1466=CARTESIAN_POINT('',(0.075,0.025,0.055));
#1467=CARTESIAN_POINT('',(0.075,3.46944695195361E-18,0.055));
#1468=CARTESIAN_POINT('',(0.075,-0.025,0.055));
#1469=CARTESIAN_POINT('',(0.075,-0.025,0.06));
#1470=CARTESIAN_POINT('',(0.075,-0.025,0.06));
#1471=CARTESIAN_POINT('',(0.075,3.46944695195361E-18,0.06));
#1472=CARTESIAN_POINT('',(0.,0.03,0.06));
#1473=CARTESIAN_POINT('',(-0.07,0.03,0.06));
#1474=CARTESIAN_POINT('',(-0.07,0.03,0.06));
#1475=CARTESIAN_POINT('',(-0.07,0.03,0.055));
#1476=CARTESIAN_POINT('',(0.,0.03,0.055));
#1477=CARTESIAN_POINT('',(0.07,0.03,0.055));
#1478=CARTESIAN_POINT('',(0.07,0.03,0.06));
#1479=CARTESIAN_POINT('',(0.07,0.03,0.06));
#1480=CARTESIAN_POINT('',(0.,0.03,0.06));
#1481=CARTESIAN_POINT('',(0.078,-0.0315,0.06));
#1482=CARTESIAN_POINT('',(0.078,0.0255,0.06));
#1483=CARTESIAN_POINT('',(0.078,0.0255,0.06));
#1484=CARTESIAN_POINT('',(0.078,-0.0315,0.06));
#1485=CARTESIAN_POINT('',(0.078,-0.033,0.06));
#1486=CARTESIAN_POINT('',(0.078,-0.033,0.06));
#1487=CARTESIAN_POINT('',(0.,0.033,0.06));
#1488=CARTESIAN_POINT('',(-0.0705,0.033,0.06));
#1489=CARTESIAN_POINT('',(-0.0705,0.033,0.06));
#1490=CARTESIAN_POINT('',(0.,0.033,0.06));
#1491=CARTESIAN_POINT('',(0.0705,0.033,0.06));
#1492=CARTESIAN_POINT('',(0.0705,0.033,0.));
#1493=CARTESIAN_POINT('',(-0.078,0.0315,0.06));
#1494=CARTESIAN_POINT('',(-0.078,0.0315,0.06));
#1495=CARTESIAN_POINT('',(-0.078,-0.033,0.06));
#1496=CARTESIAN_POINT('',(-0.078,0.0255,0.06));
#1497=CARTESIAN_POINT('',(-0.078,0.0255,0.));
#1498=CARTESIAN_POINT('',(-0.078,-0.033,0.06));
#1499=CARTESIAN_POINT('',(0.07,0.025,0.06));
#1500=CARTESIAN_POINT('',(0.07,0.025,0.055));
#1501=CARTESIAN_POINT('',(0.07,0.025,0.06));
#1502=CARTESIAN_POINT('',(0.07,-0.025,0.06));
#1503=CARTESIAN_POINT('',(0.07,-0.025,0.055));
#1504=CARTESIAN_POINT('',(0.07,-0.025,0.06));
#1505=CARTESIAN_POINT('',(-0.07,-0.025,0.06));
#1506=CARTESIAN_POINT('',(-0.07,-0.025,0.055));
#1507=CARTESIAN_POINT('',(-0.07,-0.025,0.06));
#1508=CARTESIAN_POINT('',(-0.07,0.025,0.06));
#1509=CARTESIAN_POINT('',(-0.07,0.025,0.055));
#1510=CARTESIAN_POINT('',(-0.07,0.025,0.06));
#1511=CARTESIAN_POINT('',(-0.0015,-0.033,0.06));
#1512=CARTESIAN_POINT('',(-0.02,-0.033,0.03));
#1513=CARTESIAN_POINT('',(-0.02,-0.033,0.0275));
#1514=CARTESIAN_POINT('',(0.02,-0.033,0.03));
#1515=CARTESIAN_POINT('',(0.02,-0.033,0.0275));
#1516=CARTESIAN_POINT('',(-0.0015,-0.033,0.06));
#1517=CARTESIAN_POINT('',(0.,0.,0.06));
#1518=CARTESIAN_POINT('',(-0.0705,0.0255,0.06));
#1519=CARTESIAN_POINT('',(0.0705,0.0255,0.06));
#1520=CARTESIAN_POINT('',(-0.0705,0.0255,0.06));
#1521=CARTESIAN_POINT('',(0.0705,0.0255,0.06));
#1522=CARTESIAN_POINT('',(0.,6.93889390390723E-18,0.055));
#1523=CARTESIAN_POINT('',(-0.065,-0.02,0.055));
#1524=CARTESIAN_POINT('',(-0.0635,-0.02,0.055));
#1525=CARTESIAN_POINT('',(0.065,-0.02,0.055));
#1526=CARTESIAN_POINT('',(0.0665,-0.02,0.055));
#1527=CARTESIAN_POINT('',(0.065,0.0200000000000004,0.055));
#1528=CARTESIAN_POINT('',(0.0665,0.0200000000000004,0.055));
#1529=CARTESIAN_POINT('',(-0.065,0.02,0.055));
#1530=CARTESIAN_POINT('',(-0.0635,0.02,0.055));
#1531=CARTESIAN_POINT('',(0.06,0.0200000000000008,0.055));
#1532=CARTESIAN_POINT('',(0.06,0.0200000000000008,0.055));
#1533=CARTESIAN_POINT('',(0.0400000000000005,0.0400000000000005,0.055));
#1534=CARTESIAN_POINT('',(0.065,0.0150000000000008,0.055));
#1535=CARTESIAN_POINT('',(0.065,0.0150000000000008,0.055));
#1536=CARTESIAN_POINT('',(0.065,-0.015,0.055));
#1537=CARTESIAN_POINT('',(0.065,-0.015,0.055));
#1538=CARTESIAN_POINT('',(0.04,-0.04,0.055));
#1539=CARTESIAN_POINT('',(0.06,-0.02,0.055));
#1540=CARTESIAN_POINT('',(0.06,-0.02,0.055));
#1541=CARTESIAN_POINT('',(-0.06,-0.02,0.055));
#1542=CARTESIAN_POINT('',(-0.06,-0.02,0.055));
#1543=CARTESIAN_POINT('',(-0.04,-0.04,0.055));
#1544=CARTESIAN_POINT('',(-0.065,-0.015,0.055));
#1545=CARTESIAN_POINT('',(-0.065,-0.015,0.055));
#1546=CARTESIAN_POINT('',(-0.065,0.015,0.055));
#1547=CARTESIAN_POINT('',(-0.065,0.015,0.055));
#1548=CARTESIAN_POINT('',(-0.04,0.04,0.055));
#1549=CARTESIAN_POINT('',(-0.06,0.02,0.055));
#1550=CARTESIAN_POINT('',(-0.06,0.02,0.055));
#1551=CARTESIAN_POINT('',(-0.065,0.015,0.055));
#1552=CARTESIAN_POINT('',(-0.065,0.015,0.055));
#1553=CARTESIAN_POINT('',(-0.0665,0.015,0.0565));
#1554=CARTESIAN_POINT('',(-0.075,0.015,0.048));
#1555=CARTESIAN_POINT('',(-0.075,0.015,0.055));
#1556=CARTESIAN_POINT('',(-0.06,0.02,0.055));
#1557=CARTESIAN_POINT('',(-0.06,0.02,0.003));
#1558=CARTESIAN_POINT('',(-0.065,-0.015,0.055));
#1559=CARTESIAN_POINT('',(-0.065,-0.015,0.003));
#1560=CARTESIAN_POINT('',(-0.075,-0.015,0.055));
#1561=CARTESIAN_POINT('',(-0.075,-0.015,0.048));
#1562=CARTESIAN_POINT('',(-0.075,-0.015,0.048));
#1563=CARTESIAN_POINT('',(-0.06,-0.02,0.055));
#1564=CARTESIAN_POINT('',(-0.06,-0.02,0.055));
#1565=CARTESIAN_POINT('',(-0.06,-0.0215,0.0565));
#1566=CARTESIAN_POINT('',(-0.06,-0.03,0.048));
#1567=CARTESIAN_POINT('',(-0.06,-0.03,0.055));
#1568=CARTESIAN_POINT('',(0.065,-0.015,0.055));
#1569=CARTESIAN_POINT('',(0.065,-0.015,0.055));
#1570=CARTESIAN_POINT('',(0.0665,-0.015,0.0565));
#1571=CARTESIAN_POINT('',(0.075,-0.015,0.048));
#1572=CARTESIAN_POINT('',(0.075,-0.015,0.055));
#1573=CARTESIAN_POINT('',(0.06,-0.02,0.055));
#1574=CARTESIAN_POINT('',(0.06,-0.02,0.003));
#1575=CARTESIAN_POINT('',(0.06,-0.03,0.055));
#1576=CARTESIAN_POINT('',(0.06,-0.03,0.048));
#1577=CARTESIAN_POINT('',(0.06,-0.03,0.048));
#1578=CARTESIAN_POINT('',(0.065,0.0150000000000008,0.055));
#1579=CARTESIAN_POINT('',(0.065,0.0150000000000008,0.003));
#1580=CARTESIAN_POINT('',(0.075,0.0150000000000008,0.055));
#1581=CARTESIAN_POINT('',(0.075,0.0150000000000008,0.048));
#1582=CARTESIAN_POINT('',(0.075,0.0150000000000008,0.048));
#1583=CARTESIAN_POINT('',(0.06,0.0200000000000008,0.055));
#1584=CARTESIAN_POINT('',(0.06,0.0200000000000008,0.055));
#1585=CARTESIAN_POINT('',(-0.065,0.02,0.045));
#1586=CARTESIAN_POINT('',(-0.065,0.02,0.045));
#1587=CARTESIAN_POINT('',(-0.0635,0.02,0.045));
#1588=CARTESIAN_POINT('',(0.,0.,0.045));
#1589=CARTESIAN_POINT('',(0.065,0.0200000000000004,0.045));
#1590=CARTESIAN_POINT('',(0.065,0.0200000000000004,0.045));
#1591=CARTESIAN_POINT('',(0.0665,0.0200000000000004,0.045));
#1592=CARTESIAN_POINT('',(0.,0.,0.045));
#1593=CARTESIAN_POINT('',(0.065,-0.02,0.045));
#1594=CARTESIAN_POINT('',(0.065,-0.02,0.045));
#1595=CARTESIAN_POINT('',(0.0665,-0.02,0.045));
#1596=CARTESIAN_POINT('',(0.,0.,0.045));
#1597=CARTESIAN_POINT('',(-0.065,-0.02,0.045));
#1598=CARTESIAN_POINT('',(-0.065,-0.02,0.045));
#1599=CARTESIAN_POINT('',(-0.0635,-0.02,0.045));
#1600=CARTESIAN_POINT('',(0.,0.,0.045));
#1601=CARTESIAN_POINT('',(0.,-0.03,0.029));
#1602=CARTESIAN_POINT('',(-0.02,-0.03,0.03));
#1603=CARTESIAN_POINT('',(-0.02,-0.03,0.0325));
#1604=CARTESIAN_POINT('',(0.02,-0.03,0.03));
#1605=CARTESIAN_POINT('',(0.02,-0.03,0.0325));
#1606=CARTESIAN_POINT('',(0.,-0.03,0.048));
#1607=CARTESIAN_POINT('',(0.0501417509071497,-0.0250838753147938,-0.002));
#1608=CARTESIAN_POINT('',(0.0426417509071498,-0.0250838753147938,-0.002));
#1609=CARTESIAN_POINT('',(0.0576417509071497,-0.0250838753147938,-0.002));
#1610=CARTESIAN_POINT('',(0.0576417509071497,-0.0200838753147938,-0.002));
#1611=CARTESIAN_POINT('',(0.0576417509071497,-0.0150838753147938,-0.002));
#1612=CARTESIAN_POINT('',(0.0501417509071497,-0.0150838753147938,-0.002));
#1613=CARTESIAN_POINT('',(0.0426417509071498,-0.0150838753147938,-0.002));
#1614=CARTESIAN_POINT('',(0.0426417509071498,-0.0200838753147938,-0.002));
#1615=CARTESIAN_POINT('',(0.02,-0.008,0.03));
#1616=CARTESIAN_POINT('',(-0.02,-0.008,0.03));
#1617=CARTESIAN_POINT('',(-0.075,1.38777878078145E-17,0.029));
#1618=CARTESIAN_POINT('',(-0.075,8.67361737988404E-18,0.048));
#1619=CARTESIAN_POINT('',(0.075,4.02455846426619E-16,0.029));
#1620=CARTESIAN_POINT('',(0.075,4.0766001685455E-16,0.048));
#1621=CARTESIAN_POINT('',(0.075,4.0766001685455E-16,0.048));
#1622=CARTESIAN_POINT('',(-0.075,8.67361737988404E-18,0.048));
#1623=CARTESIAN_POINT('',(0.,-0.03,0.048));
#1624=CARTESIAN_POINT('',(0.065,0.0150000000000008,0.055));
#1625=CARTESIAN_POINT('',(0.06,-0.02,0.055));
#1626=CARTESIAN_POINT('',(-0.065,-0.015,0.055));
#1627=CARTESIAN_POINT('',(-0.06,0.02,0.055));
#1628=MECHANICAL_DESIGN_GEOMETRIC_PRESENTATION_REPRESENTATION('',(#993),
#1629);
#1629=(
GEOMETRIC_REPRESENTATION_CONTEXT(3)
GLOBAL_UNCERTAINTY_ASSIGNED_CONTEXT((#1630))
GLOBAL_UNIT_ASSIGNED_CONTEXT((#1633,#1632,#1631))
REPRESENTATION_CONTEXT('body','TOP_LEVEL_ASSEMBLY_PART')
);
#1630=UNCERTAINTY_MEASURE_WITH_UNIT(LENGTH_MEASURE(1.E-8),#1633,
'DISTANCE_ACCURACY_VALUE','Maximum Tolerance applied to model');
#1631=(
NAMED_UNIT(*)
SI_UNIT($,.STERADIAN.)
SOLID_ANGLE_UNIT()
);
#1632=(
NAMED_UNIT(*)
PLANE_ANGLE_UNIT()
SI_UNIT($,.RADIAN.)
);
#1633=(
LENGTH_UNIT()
NAMED_UNIT(*)
SI_UNIT($,.METRE.)
);
#1634=PRODUCT_DEFINITION_SHAPE('','',#1635);
#1635=PRODUCT_DEFINITION('','',#1637,#1636);
#1636=PRODUCT_DEFINITION_CONTEXT('',#1643,'design');
#1637=PRODUCT_DEFINITION_FORMATION_WITH_SPECIFIED_SOURCE('','',#1639,
 .NOT_KNOWN.);
#1638=PRODUCT_RELATED_PRODUCT_CATEGORY('','',(#1639));
#1639=PRODUCT('body','body','body',(#1641));
#1640=PRODUCT_CATEGORY('','');
#1641=PRODUCT_CONTEXT('',#1643,'mechanical');
#1642=APPLICATION_PROTOCOL_DEFINITION('international standard',
'ap242_managed_model_based_3d_engineering',2020,#1643);
#1643=APPLICATION_CONTEXT('managed model based 3d engineering');
ENDSEC;
END-ISO-10303-21;
