ISO-10303-21;
HEADER;
/* Generated by software containing ST-Developer
 * from STEP Tools, Inc. (www.steptools.com) 
 */
/* OPTION: using custom renumber hook */

FILE_DESCRIPTION(
/* description */ ('STEP AP242 Edition 2',
'CAx-IF Rec.Pracs.---Representation and Presentation of Product Manufa
cturing Information (PMI)---4.0---2014-10-13',
'CAx-IF Rec.Pracs.---3D Tessellated Geometry---0.4---2014-09-14','2;1',
'CAx-IF Rec.Pracs.---User Defined Attributes---1.5---2016-08-15'),
/* implementation_level */ '2;1');

FILE_NAME(
/* name */ 'Part Studio 1 - plate',
/* time_stamp */ '2026-09-07T14:48:58Z',
/* author */ (''),
/* organization */ (''),
/* preprocessor_version */ 'ST-DEVELOPER v20',
/* originating_system */ 'ONSHAPE BY PTC INC, 1.220',
/* authorisation */ '  ');

FILE_SCHEMA (('AP242_MANAGED_MODEL_BASED_3D_ENGINEERING_MIM_LF { 1 0 10303 442 3 1 4 }'));
ENDSEC;

DATA;
#10=SHAPE_REPRESENTATION_RELATIONSHIP('','',#435,#11);
#11=ADVANCED_BREP_SHAPE_REPRESENTATION('',(#433),#737);
#12=CONICAL_SURFACE('',#479,0.003,0.785398163397448);
#13=CONICAL_SURFACE('',#482,0.003,0.785398163397448);
#14=CONICAL_SURFACE('',#485,0.003,0.785398163397448);
#15=CONICAL_SURFACE('',#488,0.003,0.785398163397448);
#16=CIRCLE('',#441,0.011);
#17=CIRCLE('',#442,0.011);
#18=CIRCLE('',#445,0.006);
#19=CIRCLE('',#446,0.006);
#20=CIRCLE('',#448,0.008);
#21=CIRCLE('',#449,0.008);
#22=CIRCLE('',#450,0.008);
#23=CIRCLE('',#451,0.005);
#24=CIRCLE('',#452,0.003);
#25=CIRCLE('',#453,0.003);
#26=CIRCLE('',#454,0.003);
#27=CIRCLE('',#455,0.003);
#28=CIRCLE('',#456,0.005);
#29=CIRCLE('',#457,0.005);
#30=CIRCLE('',#458,0.005);
#31=CIRCLE('',#459,0.005);
#32=CIRCLE('',#461,0.008);
#33=CIRCLE('',#462,0.008);
#34=CIRCLE('',#463,0.008);
#35=CIRCLE('',#464,0.005);
#36=CIRCLE('',#465,0.00155);
#37=CIRCLE('',#466,0.00155);
#38=CIRCLE('',#467,0.00155);
#39=CIRCLE('',#468,0.00155);
#40=CIRCLE('',#469,0.005);
#41=CIRCLE('',#470,0.005);
#42=CIRCLE('',#471,0.005);
#43=CIRCLE('',#472,0.005);
#44=CIRCLE('',#478,0.00155);
#45=CIRCLE('',#481,0.00155);
#46=CIRCLE('',#484,0.00155);
#47=CIRCLE('',#487,0.00155);
#48=CYLINDRICAL_SURFACE('',#440,0.011);
#49=CYLINDRICAL_SURFACE('',#444,0.006);
#50=CYLINDRICAL_SURFACE('',#473,0.005);
#51=CYLINDRICAL_SURFACE('',#474,0.005);
#52=CYLINDRICAL_SURFACE('',#475,0.005);
#53=CYLINDRICAL_SURFACE('',#476,0.005);
#54=CYLINDRICAL_SURFACE('',#477,0.00155);
#55=CYLINDRICAL_SURFACE('',#480,0.00155);
#56=CYLINDRICAL_SURFACE('',#483,0.00155);
#57=CYLINDRICAL_SURFACE('',#486,0.00155);
#58=CYLINDRICAL_SURFACE('',#489,0.005);
#59=CYLINDRICAL_SURFACE('',#490,0.008);
#60=CYLINDRICAL_SURFACE('',#491,0.008);
#61=CYLINDRICAL_SURFACE('',#492,0.008);
#62=ORIENTED_EDGE('',*,*,#158,.F.);
#63=ORIENTED_EDGE('',*,*,#159,.T.);
#64=ORIENTED_EDGE('',*,*,#160,.T.);
#65=ORIENTED_EDGE('',*,*,#161,.T.);
#66=ORIENTED_EDGE('',*,*,#162,.T.);
#67=ORIENTED_EDGE('',*,*,#163,.T.);
#68=ORIENTED_EDGE('',*,*,#164,.F.);
#69=ORIENTED_EDGE('',*,*,#165,.T.);
#70=ORIENTED_EDGE('',*,*,#166,.F.);
#71=ORIENTED_EDGE('',*,*,#167,.T.);
#72=ORIENTED_EDGE('',*,*,#168,.T.);
#73=ORIENTED_EDGE('',*,*,#169,.T.);
#74=ORIENTED_EDGE('',*,*,#170,.T.);
#75=ORIENTED_EDGE('',*,*,#171,.F.);
#76=ORIENTED_EDGE('',*,*,#172,.F.);
#77=ORIENTED_EDGE('',*,*,#173,.T.);
#78=ORIENTED_EDGE('',*,*,#174,.T.);
#79=ORIENTED_EDGE('',*,*,#175,.T.);
#80=ORIENTED_EDGE('',*,*,#176,.T.);
#81=ORIENTED_EDGE('',*,*,#177,.F.);
#82=ORIENTED_EDGE('',*,*,#178,.F.);
#83=ORIENTED_EDGE('',*,*,#179,.F.);
#84=ORIENTED_EDGE('',*,*,#180,.F.);
#85=ORIENTED_EDGE('',*,*,#181,.F.);
#86=ORIENTED_EDGE('',*,*,#182,.T.);
#87=ORIENTED_EDGE('',*,*,#183,.T.);
#88=ORIENTED_EDGE('',*,*,#184,.T.);
#89=ORIENTED_EDGE('',*,*,#185,.T.);
#90=ORIENTED_EDGE('',*,*,#164,.T.);
#91=ORIENTED_EDGE('',*,*,#186,.T.);
#92=ORIENTED_EDGE('',*,*,#166,.T.);
#93=ORIENTED_EDGE('',*,*,#187,.T.);
#94=ORIENTED_EDGE('',*,*,#174,.F.);
#95=ORIENTED_EDGE('',*,*,#188,.T.);
#96=ORIENTED_EDGE('',*,*,#160,.F.);
#97=ORIENTED_EDGE('',*,*,#189,.T.);
#98=ORIENTED_EDGE('',*,*,#170,.F.);
#99=ORIENTED_EDGE('',*,*,#176,.F.);
#100=ORIENTED_EDGE('',*,*,#190,.T.);
#101=ORIENTED_EDGE('',*,*,#191,.T.);
#102=ORIENTED_EDGE('',*,*,#192,.T.);
#103=ORIENTED_EDGE('',*,*,#193,.T.);
#104=ORIENTED_EDGE('',*,*,#194,.F.);
#105=ORIENTED_EDGE('',*,*,#195,.F.);
#106=ORIENTED_EDGE('',*,*,#196,.F.);
#107=ORIENTED_EDGE('',*,*,#197,.F.);
#108=ORIENTED_EDGE('',*,*,#168,.F.);
#109=ORIENTED_EDGE('',*,*,#198,.T.);
#110=ORIENTED_EDGE('',*,*,#162,.F.);
#111=ORIENTED_EDGE('',*,*,#199,.T.);
#112=ORIENTED_EDGE('',*,*,#158,.T.);
#113=ORIENTED_EDGE('',*,*,#200,.T.);
#114=ORIENTED_EDGE('',*,*,#172,.T.);
#115=ORIENTED_EDGE('',*,*,#201,.T.);
#116=ORIENTED_EDGE('',*,*,#171,.T.);
#117=ORIENTED_EDGE('',*,*,#177,.T.);
#118=ORIENTED_EDGE('',*,*,#186,.F.);
#119=ORIENTED_EDGE('',*,*,#163,.F.);
#120=ORIENTED_EDGE('',*,*,#198,.F.);
#121=ORIENTED_EDGE('',*,*,#167,.F.);
#122=ORIENTED_EDGE('',*,*,#189,.F.);
#123=ORIENTED_EDGE('',*,*,#159,.F.);
#124=ORIENTED_EDGE('',*,*,#199,.F.);
#125=ORIENTED_EDGE('',*,*,#165,.F.);
#126=ORIENTED_EDGE('',*,*,#188,.F.);
#127=ORIENTED_EDGE('',*,*,#173,.F.);
#128=ORIENTED_EDGE('',*,*,#200,.F.);
#129=ORIENTED_EDGE('',*,*,#161,.F.);
#130=ORIENTED_EDGE('',*,*,#187,.F.);
#131=ORIENTED_EDGE('',*,*,#169,.F.);
#132=ORIENTED_EDGE('',*,*,#201,.F.);
#133=ORIENTED_EDGE('',*,*,#175,.F.);
#134=ORIENTED_EDGE('',*,*,#202,.F.);
#135=ORIENTED_EDGE('',*,*,#197,.T.);
#136=ORIENTED_EDGE('',*,*,#202,.T.);
#137=ORIENTED_EDGE('',*,*,#185,.F.);
#138=ORIENTED_EDGE('',*,*,#203,.F.);
#139=ORIENTED_EDGE('',*,*,#196,.T.);
#140=ORIENTED_EDGE('',*,*,#203,.T.);
#141=ORIENTED_EDGE('',*,*,#184,.F.);
#142=ORIENTED_EDGE('',*,*,#204,.F.);
#143=ORIENTED_EDGE('',*,*,#195,.T.);
#144=ORIENTED_EDGE('',*,*,#204,.T.);
#145=ORIENTED_EDGE('',*,*,#183,.F.);
#146=ORIENTED_EDGE('',*,*,#205,.F.);
#147=ORIENTED_EDGE('',*,*,#194,.T.);
#148=ORIENTED_EDGE('',*,*,#205,.T.);
#149=ORIENTED_EDGE('',*,*,#182,.F.);
#150=ORIENTED_EDGE('',*,*,#181,.T.);
#151=ORIENTED_EDGE('',*,*,#193,.F.);
#152=ORIENTED_EDGE('',*,*,#180,.T.);
#153=ORIENTED_EDGE('',*,*,#192,.F.);
#154=ORIENTED_EDGE('',*,*,#179,.T.);
#155=ORIENTED_EDGE('',*,*,#191,.F.);
#156=ORIENTED_EDGE('',*,*,#178,.T.);
#157=ORIENTED_EDGE('',*,*,#190,.F.);
#158=EDGE_CURVE('',#206,#207,#246,.T.);
#159=EDGE_CURVE('',#206,#208,#247,.F.);
#160=EDGE_CURVE('',#208,#209,#248,.T.);
#161=EDGE_CURVE('',#209,#207,#249,.T.);
#162=EDGE_CURVE('',#210,#211,#250,.T.);
#163=EDGE_CURVE('',#211,#212,#251,.F.);
#164=EDGE_CURVE('',#213,#212,#252,.T.);
#165=EDGE_CURVE('',#213,#210,#253,.T.);
#166=EDGE_CURVE('',#214,#215,#254,.T.);
#167=EDGE_CURVE('',#214,#216,#255,.T.);
#168=EDGE_CURVE('',#216,#217,#256,.T.);
#169=EDGE_CURVE('',#217,#215,#257,.F.);
#170=EDGE_CURVE('',#218,#218,#16,.T.);
#171=EDGE_CURVE('',#219,#219,#17,.T.);
#172=EDGE_CURVE('',#220,#221,#258,.T.);
#173=EDGE_CURVE('',#220,#222,#259,.F.);
#174=EDGE_CURVE('',#222,#223,#260,.T.);
#175=EDGE_CURVE('',#223,#221,#261,.T.);
#176=EDGE_CURVE('',#224,#224,#18,.T.);
#177=EDGE_CURVE('',#225,#225,#19,.T.);
#178=EDGE_CURVE('',#226,#226,#20,.T.);
#179=EDGE_CURVE('',#227,#227,#21,.T.);
#180=EDGE_CURVE('',#228,#228,#22,.T.);
#181=EDGE_CURVE('',#229,#229,#23,.T.);
#182=EDGE_CURVE('',#230,#230,#24,.T.);
#183=EDGE_CURVE('',#231,#231,#25,.T.);
#184=EDGE_CURVE('',#232,#232,#26,.T.);
#185=EDGE_CURVE('',#233,#233,#27,.T.);
#186=EDGE_CURVE('',#212,#214,#28,.T.);
#187=EDGE_CURVE('',#215,#223,#29,.T.);
#188=EDGE_CURVE('',#222,#209,#30,.T.);
#189=EDGE_CURVE('',#208,#213,#31,.T.);
#190=EDGE_CURVE('',#234,#234,#32,.T.);
#191=EDGE_CURVE('',#235,#235,#33,.T.);
#192=EDGE_CURVE('',#236,#236,#34,.T.);
#193=EDGE_CURVE('',#237,#237,#35,.T.);
#194=EDGE_CURVE('',#238,#238,#36,.F.);
#195=EDGE_CURVE('',#239,#239,#37,.F.);
#196=EDGE_CURVE('',#240,#240,#38,.F.);
#197=EDGE_CURVE('',#241,#241,#39,.F.);
#198=EDGE_CURVE('',#216,#211,#40,.F.);
#199=EDGE_CURVE('',#210,#206,#41,.F.);
#200=EDGE_CURVE('',#207,#220,#42,.F.);
#201=EDGE_CURVE('',#221,#217,#43,.F.);
#202=EDGE_CURVE('',#242,#242,#44,.T.);
#203=EDGE_CURVE('',#243,#243,#45,.T.);
#204=EDGE_CURVE('',#244,#244,#46,.T.);
#205=EDGE_CURVE('',#245,#245,#47,.T.);
#206=VERTEX_POINT('',#626);
#207=VERTEX_POINT('',#627);
#208=VERTEX_POINT('',#629);
#209=VERTEX_POINT('',#631);
#210=VERTEX_POINT('',#635);
#211=VERTEX_POINT('',#636);
#212=VERTEX_POINT('',#638);
#213=VERTEX_POINT('',#640);
#214=VERTEX_POINT('',#644);
#215=VERTEX_POINT('',#645);
#216=VERTEX_POINT('',#647);
#217=VERTEX_POINT('',#649);
#218=VERTEX_POINT('',#653);
#219=VERTEX_POINT('',#655);
#220=VERTEX_POINT('',#658);
#221=VERTEX_POINT('',#659);
#222=VERTEX_POINT('',#661);
#223=VERTEX_POINT('',#663);
#224=VERTEX_POINT('',#667);
#225=VERTEX_POINT('',#669);
#226=VERTEX_POINT('',#672);
#227=VERTEX_POINT('',#674);
#228=VERTEX_POINT('',#676);
#229=VERTEX_POINT('',#678);
#230=VERTEX_POINT('',#680);
#231=VERTEX_POINT('',#682);
#232=VERTEX_POINT('',#684);
#233=VERTEX_POINT('',#686);
#234=VERTEX_POINT('',#693);
#235=VERTEX_POINT('',#695);
#236=VERTEX_POINT('',#697);
#237=VERTEX_POINT('',#699);
#238=VERTEX_POINT('',#701);
#239=VERTEX_POINT('',#703);
#240=VERTEX_POINT('',#705);
#241=VERTEX_POINT('',#707);
#242=VERTEX_POINT('',#718);
#243=VERTEX_POINT('',#722);
#244=VERTEX_POINT('',#726);
#245=VERTEX_POINT('',#730);
#246=LINE('',#625,#262);
#247=LINE('',#628,#263);
#248=LINE('',#630,#264);
#249=LINE('',#632,#265);
#250=LINE('',#634,#266);
#251=LINE('',#637,#267);
#252=LINE('',#639,#268);
#253=LINE('',#641,#269);
#254=LINE('',#643,#270);
#255=LINE('',#646,#271);
#256=LINE('',#648,#272);
#257=LINE('',#650,#273);
#258=LINE('',#657,#274);
#259=LINE('',#660,#275);
#260=LINE('',#662,#276);
#261=LINE('',#664,#277);
#262=VECTOR('',#497,1.);
#263=VECTOR('',#498,1.);
#264=VECTOR('',#499,1.);
#265=VECTOR('',#500,1.);
#266=VECTOR('',#503,1.);
#267=VECTOR('',#504,1.);
#268=VECTOR('',#505,1.);
#269=VECTOR('',#506,1.);
#270=VECTOR('',#509,1.);
#271=VECTOR('',#510,1.);
#272=VECTOR('',#511,1.);
#273=VECTOR('',#512,1.);
#274=VECTOR('',#521,1.);
#275=VECTOR('',#522,1.);
#276=VECTOR('',#523,1.);
#277=VECTOR('',#524,1.);
#278=EDGE_LOOP('',(#62,#63,#64,#65));
#279=EDGE_LOOP('',(#66,#67,#68,#69));
#280=EDGE_LOOP('',(#70,#71,#72,#73));
#281=EDGE_LOOP('',(#74));
#282=EDGE_LOOP('',(#75));
#283=EDGE_LOOP('',(#76,#77,#78,#79));
#284=EDGE_LOOP('',(#80));
#285=EDGE_LOOP('',(#81));
#286=EDGE_LOOP('',(#82));
#287=EDGE_LOOP('',(#83));
#288=EDGE_LOOP('',(#84));
#289=EDGE_LOOP('',(#85));
#290=EDGE_LOOP('',(#86));
#291=EDGE_LOOP('',(#87));
#292=EDGE_LOOP('',(#88));
#293=EDGE_LOOP('',(#89));
#294=EDGE_LOOP('',(#90,#91,#92,#93,#94,#95,#96,#97));
#295=EDGE_LOOP('',(#98));
#296=EDGE_LOOP('',(#99));
#297=EDGE_LOOP('',(#100));
#298=EDGE_LOOP('',(#101));
#299=EDGE_LOOP('',(#102));
#300=EDGE_LOOP('',(#103));
#301=EDGE_LOOP('',(#104));
#302=EDGE_LOOP('',(#105));
#303=EDGE_LOOP('',(#106));
#304=EDGE_LOOP('',(#107));
#305=EDGE_LOOP('',(#108,#109,#110,#111,#112,#113,#114,#115));
#306=EDGE_LOOP('',(#116));
#307=EDGE_LOOP('',(#117));
#308=EDGE_LOOP('',(#118,#119,#120,#121));
#309=EDGE_LOOP('',(#122,#123,#124,#125));
#310=EDGE_LOOP('',(#126,#127,#128,#129));
#311=EDGE_LOOP('',(#130,#131,#132,#133));
#312=EDGE_LOOP('',(#134));
#313=EDGE_LOOP('',(#135));
#314=EDGE_LOOP('',(#136));
#315=EDGE_LOOP('',(#137));
#316=EDGE_LOOP('',(#138));
#317=EDGE_LOOP('',(#139));
#318=EDGE_LOOP('',(#140));
#319=EDGE_LOOP('',(#141));
#320=EDGE_LOOP('',(#142));
#321=EDGE_LOOP('',(#143));
#322=EDGE_LOOP('',(#144));
#323=EDGE_LOOP('',(#145));
#324=EDGE_LOOP('',(#146));
#325=EDGE_LOOP('',(#147));
#326=EDGE_LOOP('',(#148));
#327=EDGE_LOOP('',(#149));
#328=EDGE_LOOP('',(#150));
#329=EDGE_LOOP('',(#151));
#330=EDGE_LOOP('',(#152));
#331=EDGE_LOOP('',(#153));
#332=EDGE_LOOP('',(#154));
#333=EDGE_LOOP('',(#155));
#334=EDGE_LOOP('',(#156));
#335=EDGE_LOOP('',(#157));
#336=FACE_BOUND('',#278,.T.);
#337=FACE_BOUND('',#279,.T.);
#338=FACE_BOUND('',#280,.T.);
#339=FACE_BOUND('',#281,.T.);
#340=FACE_BOUND('',#282,.T.);
#341=FACE_BOUND('',#283,.T.);
#342=FACE_BOUND('',#284,.T.);
#343=FACE_BOUND('',#285,.T.);
#344=FACE_BOUND('',#286,.T.);
#345=FACE_BOUND('',#287,.T.);
#346=FACE_BOUND('',#288,.T.);
#347=FACE_BOUND('',#289,.T.);
#348=FACE_BOUND('',#290,.T.);
#349=FACE_BOUND('',#291,.T.);
#350=FACE_BOUND('',#292,.T.);
#351=FACE_BOUND('',#293,.T.);
#352=FACE_BOUND('',#294,.T.);
#353=FACE_BOUND('',#295,.T.);
#354=FACE_BOUND('',#296,.T.);
#355=FACE_BOUND('',#297,.T.);
#356=FACE_BOUND('',#298,.T.);
#357=FACE_BOUND('',#299,.T.);
#358=FACE_BOUND('',#300,.T.);
#359=FACE_BOUND('',#301,.T.);
#360=FACE_BOUND('',#302,.T.);
#361=FACE_BOUND('',#303,.T.);
#362=FACE_BOUND('',#304,.T.);
#363=FACE_BOUND('',#305,.T.);
#364=FACE_BOUND('',#306,.T.);
#365=FACE_BOUND('',#307,.T.);
#366=FACE_BOUND('',#308,.T.);
#367=FACE_BOUND('',#309,.T.);
#368=FACE_BOUND('',#310,.T.);
#369=FACE_BOUND('',#311,.T.);
#370=FACE_BOUND('',#312,.T.);
#371=FACE_BOUND('',#313,.T.);
#372=FACE_BOUND('',#314,.T.);
#373=FACE_BOUND('',#315,.T.);
#374=FACE_BOUND('',#316,.T.);
#375=FACE_BOUND('',#317,.T.);
#376=FACE_BOUND('',#318,.T.);
#377=FACE_BOUND('',#319,.T.);
#378=FACE_BOUND('',#320,.T.);
#379=FACE_BOUND('',#321,.T.);
#380=FACE_BOUND('',#322,.T.);
#381=FACE_BOUND('',#323,.T.);
#382=FACE_BOUND('',#324,.T.);
#383=FACE_BOUND('',#325,.T.);
#384=FACE_BOUND('',#326,.T.);
#385=FACE_BOUND('',#327,.T.);
#386=FACE_BOUND('',#328,.T.);
#387=FACE_BOUND('',#329,.T.);
#388=FACE_BOUND('',#330,.T.);
#389=FACE_BOUND('',#331,.T.);
#390=FACE_BOUND('',#332,.T.);
#391=FACE_BOUND('',#333,.T.);
#392=FACE_BOUND('',#334,.T.);
#393=FACE_BOUND('',#335,.T.);
#394=PLANE('',#437);
#395=PLANE('',#438);
#396=PLANE('',#439);
#397=PLANE('',#443);
#398=PLANE('',#447);
#399=PLANE('',#460);
#400=ADVANCED_FACE('',(#336),#394,.T.);
#401=ADVANCED_FACE('',(#337),#395,.F.);
#402=ADVANCED_FACE('',(#338),#396,.F.);
#403=ADVANCED_FACE('',(#339,#340),#48,.F.);
#404=ADVANCED_FACE('',(#341),#397,.T.);
#405=ADVANCED_FACE('',(#342,#343),#49,.F.);
#406=ADVANCED_FACE('',(#344,#345,#346,#347,#348,#349,#350,#351,#352,#353,
#354),#398,.T.);
#407=ADVANCED_FACE('',(#355,#356,#357,#358,#359,#360,#361,#362,#363,#364,
#365),#399,.F.);
#408=ADVANCED_FACE('',(#366),#50,.T.);
#409=ADVANCED_FACE('',(#367),#51,.T.);
#410=ADVANCED_FACE('',(#368),#52,.T.);
#411=ADVANCED_FACE('',(#369),#53,.T.);
#412=ADVANCED_FACE('',(#370,#371),#54,.F.);
#413=ADVANCED_FACE('',(#372,#373),#12,.F.);
#414=ADVANCED_FACE('',(#374,#375),#55,.F.);
#415=ADVANCED_FACE('',(#376,#377),#13,.F.);
#416=ADVANCED_FACE('',(#378,#379),#56,.F.);
#417=ADVANCED_FACE('',(#380,#381),#14,.F.);
#418=ADVANCED_FACE('',(#382,#383),#57,.F.);
#419=ADVANCED_FACE('',(#384,#385),#15,.F.);
#420=ADVANCED_FACE('',(#386,#387),#58,.F.);
#421=ADVANCED_FACE('',(#388,#389),#59,.F.);
#422=ADVANCED_FACE('',(#390,#391),#60,.F.);
#423=ADVANCED_FACE('',(#392,#393),#61,.F.);
#424=CLOSED_SHELL('',(#400,#401,#402,#403,#404,#405,#406,#407,#408,#409,
#410,#411,#412,#413,#414,#415,#416,#417,#418,#419,#420,#421,#422,#423));
#425=STYLED_ITEM('',(#426),#433);
#426=PRESENTATION_STYLE_ASSIGNMENT((#427));
#427=SURFACE_STYLE_USAGE(.BOTH.,#428);
#428=SURFACE_SIDE_STYLE('',(#429));
#429=SURFACE_STYLE_FILL_AREA(#430);
#430=FILL_AREA_STYLE('',(#431));
#431=FILL_AREA_STYLE_COLOUR('',#432);
#432=COLOUR_RGB('',0.615686274509804,0.811764705882353,0.929411764705882);
#433=MANIFOLD_SOLID_BREP('plate',#424);
#434=SHAPE_DEFINITION_REPRESENTATION(#742,#435);
#435=SHAPE_REPRESENTATION('plate',(#436),#737);
#436=AXIS2_PLACEMENT_3D('',#623,#493,#494);
#437=AXIS2_PLACEMENT_3D('',#624,#495,#496);
#438=AXIS2_PLACEMENT_3D('',#633,#501,#502);
#439=AXIS2_PLACEMENT_3D('',#642,#507,#508);
#440=AXIS2_PLACEMENT_3D('',#651,#513,#514);
#441=AXIS2_PLACEMENT_3D('',#652,#515,#516);
#442=AXIS2_PLACEMENT_3D('',#654,#517,#518);
#443=AXIS2_PLACEMENT_3D('',#656,#519,#520);
#444=AXIS2_PLACEMENT_3D('',#665,#525,#526);
#445=AXIS2_PLACEMENT_3D('',#666,#527,#528);
#446=AXIS2_PLACEMENT_3D('',#668,#529,#530);
#447=AXIS2_PLACEMENT_3D('',#670,#531,#532);
#448=AXIS2_PLACEMENT_3D('',#671,#533,#534);
#449=AXIS2_PLACEMENT_3D('',#673,#535,#536);
#450=AXIS2_PLACEMENT_3D('',#675,#537,#538);
#451=AXIS2_PLACEMENT_3D('',#677,#539,#540);
#452=AXIS2_PLACEMENT_3D('',#679,#541,#542);
#453=AXIS2_PLACEMENT_3D('',#681,#543,#544);
#454=AXIS2_PLACEMENT_3D('',#683,#545,#546);
#455=AXIS2_PLACEMENT_3D('',#685,#547,#548);
#456=AXIS2_PLACEMENT_3D('',#687,#549,#550);
#457=AXIS2_PLACEMENT_3D('',#688,#551,#552);
#458=AXIS2_PLACEMENT_3D('',#689,#553,#554);
#459=AXIS2_PLACEMENT_3D('',#690,#555,#556);
#460=AXIS2_PLACEMENT_3D('',#691,#557,#558);
#461=AXIS2_PLACEMENT_3D('',#692,#559,#560);
#462=AXIS2_PLACEMENT_3D('',#694,#561,#562);
#463=AXIS2_PLACEMENT_3D('',#696,#563,#564);
#464=AXIS2_PLACEMENT_3D('',#698,#565,#566);
#465=AXIS2_PLACEMENT_3D('',#700,#567,#568);
#466=AXIS2_PLACEMENT_3D('',#702,#569,#570);
#467=AXIS2_PLACEMENT_3D('',#704,#571,#572);
#468=AXIS2_PLACEMENT_3D('',#706,#573,#574);
#469=AXIS2_PLACEMENT_3D('',#708,#575,#576);
#470=AXIS2_PLACEMENT_3D('',#709,#577,#578);
#471=AXIS2_PLACEMENT_3D('',#710,#579,#580);
#472=AXIS2_PLACEMENT_3D('',#711,#581,#582);
#473=AXIS2_PLACEMENT_3D('',#712,#583,#584);
#474=AXIS2_PLACEMENT_3D('',#713,#585,#586);
#475=AXIS2_PLACEMENT_3D('',#714,#587,#588);
#476=AXIS2_PLACEMENT_3D('',#715,#589,#590);
#477=AXIS2_PLACEMENT_3D('',#716,#591,#592);
#478=AXIS2_PLACEMENT_3D('',#717,#593,#594);
#479=AXIS2_PLACEMENT_3D('',#719,#595,#596);
#480=AXIS2_PLACEMENT_3D('',#720,#597,#598);
#481=AXIS2_PLACEMENT_3D('',#721,#599,#600);
#482=AXIS2_PLACEMENT_3D('',#723,#601,#602);
#483=AXIS2_PLACEMENT_3D('',#724,#603,#604);
#484=AXIS2_PLACEMENT_3D('',#725,#605,#606);
#485=AXIS2_PLACEMENT_3D('',#727,#607,#608);
#486=AXIS2_PLACEMENT_3D('',#728,#609,#610);
#487=AXIS2_PLACEMENT_3D('',#729,#611,#612);
#488=AXIS2_PLACEMENT_3D('',#731,#613,#614);
#489=AXIS2_PLACEMENT_3D('',#732,#615,#616);
#490=AXIS2_PLACEMENT_3D('',#733,#617,#618);
#491=AXIS2_PLACEMENT_3D('',#734,#619,#620);
#492=AXIS2_PLACEMENT_3D('',#735,#621,#622);
#493=DIRECTION('',(0.,0.,1.));
#494=DIRECTION('',(1.,0.,0.));
#495=DIRECTION('',(1.,0.,0.));
#496=DIRECTION('',(0.,0.,-1.));
#497=DIRECTION('',(0.,-1.,0.));
#498=DIRECTION('',(0.,0.,-1.));
#499=DIRECTION('',(0.,-1.,0.));
#500=DIRECTION('',(0.,0.,-1.));
#501=DIRECTION('',(0.,-1.,0.));
#502=DIRECTION('',(0.,0.,-1.));
#503=DIRECTION('',(-1.,0.,0.));
#504=DIRECTION('',(0.,0.,-1.));
#505=DIRECTION('',(-1.,0.,0.));
#506=DIRECTION('',(0.,0.,-1.));
#507=DIRECTION('',(1.,0.,0.));
#508=DIRECTION('',(0.,0.,-1.));
#509=DIRECTION('',(0.,-1.,0.));
#510=DIRECTION('',(0.,0.,-1.));
#511=DIRECTION('',(0.,-1.,0.));
#512=DIRECTION('',(0.,0.,-1.));
#513=DIRECTION('',(0.,0.,-1.));
#514=DIRECTION('',(-1.,0.,0.));
#515=DIRECTION('',(0.,0.,1.));
#516=DIRECTION('',(1.,0.,0.));
#517=DIRECTION('',(0.,0.,1.));
#518=DIRECTION('',(1.,0.,0.));
#519=DIRECTION('',(0.,-1.,0.));
#520=DIRECTION('',(0.,0.,-1.));
#521=DIRECTION('',(-1.,0.,0.));
#522=DIRECTION('',(0.,0.,-1.));
#523=DIRECTION('',(-1.,0.,0.));
#524=DIRECTION('',(0.,0.,-1.));
#525=DIRECTION('',(0.,0.,-1.));
#526=DIRECTION('',(-1.,0.,0.));
#527=DIRECTION('',(0.,0.,1.));
#528=DIRECTION('',(1.,0.,0.));
#529=DIRECTION('',(0.,0.,1.));
#530=DIRECTION('',(1.,0.,0.));
#531=DIRECTION('',(0.,0.,1.));
#532=DIRECTION('',(1.,0.,0.));
#533=DIRECTION('',(0.,0.,1.));
#534=DIRECTION('',(1.,0.,0.));
#535=DIRECTION('',(0.,0.,1.));
#536=DIRECTION('',(1.,0.,0.));
#537=DIRECTION('',(0.,0.,1.));
#538=DIRECTION('',(1.,0.,0.));
#539=DIRECTION('',(0.,0.,1.));
#540=DIRECTION('',(1.,0.,0.));
#541=DIRECTION('',(0.,0.,-1.));
#542=DIRECTION('',(-1.,0.,0.));
#543=DIRECTION('',(0.,0.,-1.));
#544=DIRECTION('',(-1.,0.,0.));
#545=DIRECTION('',(0.,0.,-1.));
#546=DIRECTION('',(-1.,0.,0.));
#547=DIRECTION('',(0.,0.,-1.));
#548=DIRECTION('',(-1.,0.,0.));
#549=DIRECTION('',(0.,0.,1.));
#550=DIRECTION('',(1.,0.,0.));
#551=DIRECTION('',(0.,0.,1.));
#552=DIRECTION('',(1.,0.,0.));
#553=DIRECTION('',(0.,0.,1.));
#554=DIRECTION('',(1.,0.,0.));
#555=DIRECTION('',(0.,0.,1.));
#556=DIRECTION('',(1.,0.,0.));
#557=DIRECTION('',(0.,0.,1.));
#558=DIRECTION('',(1.,0.,0.));
#559=DIRECTION('',(0.,0.,1.));
#560=DIRECTION('',(1.,0.,0.));
#561=DIRECTION('',(0.,0.,1.));
#562=DIRECTION('',(1.,0.,0.));
#563=DIRECTION('',(0.,0.,1.));
#564=DIRECTION('',(1.,0.,0.));
#565=DIRECTION('',(0.,0.,1.));
#566=DIRECTION('',(1.,0.,0.));
#567=DIRECTION('',(0.,0.,1.));
#568=DIRECTION('',(1.,0.,0.));
#569=DIRECTION('',(0.,0.,1.));
#570=DIRECTION('',(1.,0.,0.));
#571=DIRECTION('',(0.,0.,1.));
#572=DIRECTION('',(1.,0.,0.));
#573=DIRECTION('',(0.,0.,1.));
#574=DIRECTION('',(1.,0.,0.));
#575=DIRECTION('',(0.,0.,1.));
#576=DIRECTION('',(1.,0.,0.));
#577=DIRECTION('',(0.,0.,1.));
#578=DIRECTION('',(1.,0.,0.));
#579=DIRECTION('',(0.,0.,1.));
#580=DIRECTION('',(1.,0.,0.));
#581=DIRECTION('',(0.,0.,1.));
#582=DIRECTION('',(1.,0.,0.));
#583=DIRECTION('',(0.,0.,-1.));
#584=DIRECTION('',(-1.,0.,0.));
#585=DIRECTION('',(0.,0.,1.));
#586=DIRECTION('',(1.,0.,0.));
#587=DIRECTION('',(0.,0.,-1.));
#588=DIRECTION('',(-1.,0.,0.));
#589=DIRECTION('',(0.,0.,1.));
#590=DIRECTION('',(1.,0.,0.));
#591=DIRECTION('',(0.,0.,-1.));
#592=DIRECTION('',(-1.,0.,0.));
#593=DIRECTION('',(0.,0.,-1.));
#594=DIRECTION('',(-1.,0.,0.));
#595=DIRECTION('',(0.,0.,1.));
#596=DIRECTION('',(1.,0.,0.));
#597=DIRECTION('',(0.,0.,-1.));
#598=DIRECTION('',(-1.,0.,0.));
#599=DIRECTION('',(0.,0.,-1.));
#600=DIRECTION('',(-1.,0.,0.));
#601=DIRECTION('',(0.,0.,1.));
#602=DIRECTION('',(1.,0.,0.));
#603=DIRECTION('',(0.,0.,-1.));
#604=DIRECTION('',(-1.,0.,0.));
#605=DIRECTION('',(0.,0.,-1.));
#606=DIRECTION('',(-1.,0.,0.));
#607=DIRECTION('',(0.,0.,1.));
#608=DIRECTION('',(1.,0.,0.));
#609=DIRECTION('',(0.,0.,-1.));
#610=DIRECTION('',(-1.,0.,0.));
#611=DIRECTION('',(0.,0.,-1.));
#612=DIRECTION('',(-1.,0.,0.));
#613=DIRECTION('',(0.,0.,1.));
#614=DIRECTION('',(1.,0.,0.));
#615=DIRECTION('',(0.,0.,1.));
#616=DIRECTION('',(1.,0.,0.));
#617=DIRECTION('',(0.,0.,1.));
#618=DIRECTION('',(1.,0.,0.));
#619=DIRECTION('',(0.,0.,1.));
#620=DIRECTION('',(1.,0.,0.));
#621=DIRECTION('',(0.,0.,1.));
#622=DIRECTION('',(1.,0.,0.));
#623=CARTESIAN_POINT('',(0.,0.,0.));
#624=CARTESIAN_POINT('',(0.075,5.20417042793042E-18,0.1341));
#625=CARTESIAN_POINT('',(0.075,5.20417042793042E-18,0.1321));
#626=CARTESIAN_POINT('',(0.075,0.025,0.1321));
#627=CARTESIAN_POINT('',(0.075,-0.025,0.1321));
#628=CARTESIAN_POINT('',(0.075,0.025,0.1341));
#629=CARTESIAN_POINT('',(0.075,0.025,0.1341));
#630=CARTESIAN_POINT('',(0.075,5.20417042793042E-18,0.1341));
#631=CARTESIAN_POINT('',(0.075,-0.025,0.1341));
#632=CARTESIAN_POINT('',(0.075,-0.025,0.1341));
#633=CARTESIAN_POINT('',(0.,0.03,0.1341));
#634=CARTESIAN_POINT('',(0.,0.03,0.1321));
#635=CARTESIAN_POINT('',(0.07,0.03,0.1321));
#636=CARTESIAN_POINT('',(-0.07,0.03,0.1321));
#637=CARTESIAN_POINT('',(-0.07,0.03,0.1341));
#638=CARTESIAN_POINT('',(-0.07,0.03,0.1341));
#639=CARTESIAN_POINT('',(0.,0.03,0.1341));
#640=CARTESIAN_POINT('',(0.07,0.03,0.1341));
#641=CARTESIAN_POINT('',(0.07,0.03,0.1321));
#642=CARTESIAN_POINT('',(-0.075,1.7347234759768E-18,0.1341));
#643=CARTESIAN_POINT('',(-0.075,1.7347234759768E-18,0.1341));
#644=CARTESIAN_POINT('',(-0.075,0.025,0.1341));
#645=CARTESIAN_POINT('',(-0.075,-0.025,0.1341));
#646=CARTESIAN_POINT('',(-0.075,0.025,0.1341));
#647=CARTESIAN_POINT('',(-0.075,0.025,0.1321));
#648=CARTESIAN_POINT('',(-0.075,1.7347234759768E-18,0.1321));
#649=CARTESIAN_POINT('',(-0.075,-0.025,0.1321));
#650=CARTESIAN_POINT('',(-0.075,-0.025,0.1341));
#651=CARTESIAN_POINT('',(-0.044007133692503,6.73555739531044E-19,0.1341));
#652=CARTESIAN_POINT('',(-0.044007133692503,6.73555739531044E-19,0.1341));
#653=CARTESIAN_POINT('',(-0.033007133692503,6.73555739531044E-19,0.1341));
#654=CARTESIAN_POINT('',(-0.044007133692503,6.73555739531044E-19,0.1321));
#655=CARTESIAN_POINT('',(-0.033007133692503,6.73555739531044E-19,0.1321));
#656=CARTESIAN_POINT('',(0.,-0.03,0.1341));
#657=CARTESIAN_POINT('',(0.,-0.03,0.1321));
#658=CARTESIAN_POINT('',(0.07,-0.03,0.1321));
#659=CARTESIAN_POINT('',(-0.07,-0.03,0.1321));
#660=CARTESIAN_POINT('',(0.07,-0.03,0.1341));
#661=CARTESIAN_POINT('',(0.07,-0.03,0.1341));
#662=CARTESIAN_POINT('',(0.,-0.03,0.1341));
#663=CARTESIAN_POINT('',(-0.07,-0.03,0.1341));
#664=CARTESIAN_POINT('',(-0.07,-0.03,0.1321));
#665=CARTESIAN_POINT('',(-0.00411552435252815,3.67394039744206E-19,0.1341));
#666=CARTESIAN_POINT('',(-0.00411552435252815,3.67394039744206E-19,0.1341));
#667=CARTESIAN_POINT('',(0.00188447564747185,3.67394039744206E-19,0.1341));
#668=CARTESIAN_POINT('',(-0.00411552435252815,3.67394039744206E-19,0.1321));
#669=CARTESIAN_POINT('',(0.00188447564747185,3.67394039744206E-19,0.1321));
#670=CARTESIAN_POINT('',(0.,0.,0.1341));
#671=CARTESIAN_POINT('',(0.0279167148222291,-0.00962247710209339,0.1341));
#672=CARTESIAN_POINT('',(0.0359167148222291,-0.00962247710209339,0.1341));
#673=CARTESIAN_POINT('',(0.0479167148222291,-0.00962247710209339,0.1341));
#674=CARTESIAN_POINT('',(0.0559167148222291,-0.00962247710209339,0.1341));
#675=CARTESIAN_POINT('',(0.0479167148222291,0.0103775228979066,0.1341));
#676=CARTESIAN_POINT('',(0.0559167148222291,0.0103775228979066,0.1341));
#677=CARTESIAN_POINT('',(0.0279167148222291,0.0103775228979066,0.1341));
#678=CARTESIAN_POINT('',(0.0329167148222291,0.0103775228979066,0.1341));
#679=CARTESIAN_POINT('',(0.065,0.02,0.1341));
#680=CARTESIAN_POINT('',(0.062,0.02,0.1341));
#681=CARTESIAN_POINT('',(0.065,-0.02,0.1341));
#682=CARTESIAN_POINT('',(0.062,-0.02,0.1341));
#683=CARTESIAN_POINT('',(-0.065,-0.02,0.1341));
#684=CARTESIAN_POINT('',(-0.068,-0.02,0.1341));
#685=CARTESIAN_POINT('',(-0.065,0.02,0.1341));
#686=CARTESIAN_POINT('',(-0.068,0.02,0.1341));
#687=CARTESIAN_POINT('',(-0.07,0.025,0.1341));
#688=CARTESIAN_POINT('',(-0.07,-0.025,0.1341));
#689=CARTESIAN_POINT('',(0.07,-0.025,0.1341));
#690=CARTESIAN_POINT('',(0.07,0.025,0.1341));
#691=CARTESIAN_POINT('',(0.,0.,0.1321));
#692=CARTESIAN_POINT('',(0.0279167148222291,-0.00962247710209339,0.1321));
#693=CARTESIAN_POINT('',(0.0359167148222291,-0.00962247710209339,0.1321));
#694=CARTESIAN_POINT('',(0.0479167148222291,-0.00962247710209339,0.1321));
#695=CARTESIAN_POINT('',(0.0559167148222291,-0.00962247710209339,0.1321));
#696=CARTESIAN_POINT('',(0.0479167148222291,0.0103775228979066,0.1321));
#697=CARTESIAN_POINT('',(0.0559167148222291,0.0103775228979066,0.1321));
#698=CARTESIAN_POINT('',(0.0279167148222291,0.0103775228979066,0.1321));
#699=CARTESIAN_POINT('',(0.0329167148222291,0.0103775228979066,0.1321));
#700=CARTESIAN_POINT('',(0.065,0.02,0.1321));
#701=CARTESIAN_POINT('',(0.06655,0.02,0.1321));
#702=CARTESIAN_POINT('',(0.065,-0.02,0.1321));
#703=CARTESIAN_POINT('',(0.06655,-0.02,0.1321));
#704=CARTESIAN_POINT('',(-0.065,-0.02,0.1321));
#705=CARTESIAN_POINT('',(-0.06345,-0.02,0.1321));
#706=CARTESIAN_POINT('',(-0.065,0.02,0.1321));
#707=CARTESIAN_POINT('',(-0.06345,0.02,0.1321));
#708=CARTESIAN_POINT('',(-0.07,0.025,0.1321));
#709=CARTESIAN_POINT('',(0.07,0.025,0.1321));
#710=CARTESIAN_POINT('',(0.07,-0.025,0.1321));
#711=CARTESIAN_POINT('',(-0.07,-0.025,0.1321));
#712=CARTESIAN_POINT('',(-0.07,0.025,0.1341));
#713=CARTESIAN_POINT('',(0.07,0.025,0.1341));
#714=CARTESIAN_POINT('',(0.07,-0.025,0.1341));
#715=CARTESIAN_POINT('',(-0.07,-0.025,0.1341));
#716=CARTESIAN_POINT('',(-0.065,0.02,0.1341));
#717=CARTESIAN_POINT('',(-0.065,0.02,0.13265));
#718=CARTESIAN_POINT('',(-0.06655,0.02,0.13265));
#719=CARTESIAN_POINT('',(-0.065,0.02,0.1341));
#720=CARTESIAN_POINT('',(-0.065,-0.02,0.1341));
#721=CARTESIAN_POINT('',(-0.065,-0.02,0.13265));
#722=CARTESIAN_POINT('',(-0.06655,-0.02,0.13265));
#723=CARTESIAN_POINT('',(-0.065,-0.02,0.1341));
#724=CARTESIAN_POINT('',(0.065,-0.02,0.1341));
#725=CARTESIAN_POINT('',(0.065,-0.02,0.13265));
#726=CARTESIAN_POINT('',(0.06345,-0.02,0.13265));
#727=CARTESIAN_POINT('',(0.065,-0.02,0.1341));
#728=CARTESIAN_POINT('',(0.065,0.02,0.1341));
#729=CARTESIAN_POINT('',(0.065,0.02,0.13265));
#730=CARTESIAN_POINT('',(0.06345,0.02,0.13265));
#731=CARTESIAN_POINT('',(0.065,0.02,0.1341));
#732=CARTESIAN_POINT('',(0.0279167148222291,0.0103775228979066,0.1239));
#733=CARTESIAN_POINT('',(0.0479167148222291,0.0103775228979066,0.1239));
#734=CARTESIAN_POINT('',(0.0479167148222291,-0.00962247710209339,0.1239));
#735=CARTESIAN_POINT('',(0.0279167148222291,-0.00962247710209339,0.1239));
#736=MECHANICAL_DESIGN_GEOMETRIC_PRESENTATION_REPRESENTATION('',(#425),
#737);
#737=(
GEOMETRIC_REPRESENTATION_CONTEXT(3)
GLOBAL_UNCERTAINTY_ASSIGNED_CONTEXT((#738))
GLOBAL_UNIT_ASSIGNED_CONTEXT((#741,#740,#739))
REPRESENTATION_CONTEXT('plate','TOP_LEVEL_ASSEMBLY_PART')
);
#738=UNCERTAINTY_MEASURE_WITH_UNIT(LENGTH_MEASURE(1.E-8),#741,
'DISTANCE_ACCURACY_VALUE','Maximum Tolerance applied to model');
#739=(
NAMED_UNIT(*)
SI_UNIT($,.STERADIAN.)
SOLID_ANGLE_UNIT()
);
#740=(
NAMED_UNIT(*)
PLANE_ANGLE_UNIT()
SI_UNIT($,.RADIAN.)
);
#741=(
LENGTH_UNIT()
NAMED_UNIT(*)
SI_UNIT($,.METRE.)
);
#742=PRODUCT_DEFINITION_SHAPE('','',#743);
#743=PRODUCT_DEFINITION('','',#745,#744);
#744=PRODUCT_DEFINITION_CONTEXT('',#751,'design');
#745=PRODUCT_DEFINITION_FORMATION_WITH_SPECIFIED_SOURCE('','',#747,
 .NOT_KNOWN.);
#746=PRODUCT_RELATED_PRODUCT_CATEGORY('','',(#747));
#747=PRODUCT('plate','plate','plate',(#749));
#748=PRODUCT_CATEGORY('','');
#749=PRODUCT_CONTEXT('',#751,'mechanical');
#750=APPLICATION_PROTOCOL_DEFINITION('international standard',
'ap242_managed_model_based_3d_engineering',2020,#751);
#751=APPLICATION_CONTEXT('managed model based 3d engineering');
ENDSEC;
END-ISO-10303-21;
